<mxfile host="Electron" modified="2024-05-26T10:44:19.800Z" agent="Mozilla/5.0 (Windows NT 10.0; Win64; x64) AppleWebKit/537.36 (KHTML, like Gecko) draw.io/24.4.8 Chrome/124.0.6367.207 Electron/30.0.6 Safari/537.36" etag="TL-SK4oJjp-941Ny22Hh" version="24.4.8" type="device">
  <diagram name="Page-1" id="16e2658f-23c8-b752-8be9-c03fbebb8bbe">
    <mxGraphModel dx="909" dy="690" grid="1" gridSize="10" guides="1" tooltips="1" connect="1" arrows="1" fold="1" page="1" pageScale="1" pageWidth="2336" pageHeight="1654" background="none" math="0" shadow="0">
      <root>
        <mxCell id="0" />
        <mxCell id="1" parent="0" />
        <mxCell id="t-9RpsmPlMLalLA969iO-33" value="" style="endArrow=none;html=1;rounded=0;" parent="1" edge="1">
          <mxGeometry width="50" height="50" relative="1" as="geometry">
            <mxPoint x="699.37" y="1520" as="sourcePoint" />
            <mxPoint x="819.37" y="1520" as="targetPoint" />
          </mxGeometry>
        </mxCell>
        <mxCell id="t-9RpsmPlMLalLA969iO-34" value="" style="endArrow=none;html=1;rounded=0;" parent="1" edge="1">
          <mxGeometry width="50" height="50" relative="1" as="geometry">
            <mxPoint x="819.37" y="1520" as="sourcePoint" />
            <mxPoint x="869.37" y="1460" as="targetPoint" />
          </mxGeometry>
        </mxCell>
        <mxCell id="t-9RpsmPlMLalLA969iO-35" value="" style="endArrow=none;html=1;rounded=0;" parent="1" edge="1">
          <mxGeometry width="50" height="50" relative="1" as="geometry">
            <mxPoint x="699.37" y="1520" as="sourcePoint" />
            <mxPoint x="649.37" y="1460" as="targetPoint" />
          </mxGeometry>
        </mxCell>
        <mxCell id="t-9RpsmPlMLalLA969iO-36" value="" style="endArrow=none;html=1;rounded=0;" parent="1" edge="1">
          <mxGeometry width="50" height="50" relative="1" as="geometry">
            <mxPoint x="649.37" y="1460" as="sourcePoint" />
            <mxPoint x="719.37" y="1460" as="targetPoint" />
          </mxGeometry>
        </mxCell>
        <mxCell id="t-9RpsmPlMLalLA969iO-38" value="" style="endArrow=none;html=1;rounded=0;" parent="1" edge="1">
          <mxGeometry width="50" height="50" relative="1" as="geometry">
            <mxPoint x="719.37" y="1460" as="sourcePoint" />
            <mxPoint x="759.37" y="1490" as="targetPoint" />
          </mxGeometry>
        </mxCell>
        <mxCell id="t-9RpsmPlMLalLA969iO-39" value="" style="endArrow=none;html=1;rounded=0;" parent="1" edge="1">
          <mxGeometry width="50" height="50" relative="1" as="geometry">
            <mxPoint x="759.37" y="1490" as="sourcePoint" />
            <mxPoint x="799.37" y="1460" as="targetPoint" />
          </mxGeometry>
        </mxCell>
        <mxCell id="t-9RpsmPlMLalLA969iO-46" value="" style="endArrow=classic;html=1;rounded=0;exitX=0.5;exitY=0;exitDx=0;exitDy=0;" parent="1" source="qN9n4UM56Keu8omTE9ro-56" edge="1">
          <mxGeometry width="50" height="50" relative="1" as="geometry">
            <mxPoint x="779.1899999999999" y="1448" as="sourcePoint" />
            <mxPoint x="684.37" y="1460" as="targetPoint" />
          </mxGeometry>
        </mxCell>
        <mxCell id="t-9RpsmPlMLalLA969iO-47" value="" style="endArrow=none;html=1;rounded=0;" parent="1" edge="1">
          <mxGeometry width="50" height="50" relative="1" as="geometry">
            <mxPoint x="799.37" y="1460" as="sourcePoint" />
            <mxPoint x="869.37" y="1460" as="targetPoint" />
          </mxGeometry>
        </mxCell>
        <mxCell id="t-9RpsmPlMLalLA969iO-53" value="" style="endArrow=classic;html=1;rounded=0;exitX=0.45;exitY=0.007;exitDx=0;exitDy=0;exitPerimeter=0;" parent="1" source="qN9n4UM56Keu8omTE9ro-59" edge="1">
          <mxGeometry width="50" height="50" relative="1" as="geometry">
            <mxPoint x="819.37" y="1440" as="sourcePoint" />
            <mxPoint x="835.37" y="1460" as="targetPoint" />
          </mxGeometry>
        </mxCell>
        <mxCell id="qN9n4UM56Keu8omTE9ro-1" value="general regs" style="rounded=0;whiteSpace=wrap;html=1;" parent="1" vertex="1">
          <mxGeometry x="679.37" y="1250" width="180" height="30" as="geometry" />
        </mxCell>
        <mxCell id="qN9n4UM56Keu8omTE9ro-5" value="" style="endArrow=classic;html=1;rounded=0;exitX=0.797;exitY=1.014;exitDx=0;exitDy=0;exitPerimeter=0;entryX=0.551;entryY=0.983;entryDx=0;entryDy=0;entryPerimeter=0;" parent="1" source="qN9n4UM56Keu8omTE9ro-1" target="qN9n4UM56Keu8omTE9ro-59" edge="1">
          <mxGeometry width="50" height="50" relative="1" as="geometry">
            <mxPoint x="899.37" y="1360" as="sourcePoint" />
            <mxPoint x="909.37" y="1390" as="targetPoint" />
          </mxGeometry>
        </mxCell>
        <mxCell id="qN9n4UM56Keu8omTE9ro-8" value="" style="endArrow=classic;html=1;rounded=0;exitX=0.138;exitY=1.016;exitDx=0;exitDy=0;exitPerimeter=0;entryX=0.338;entryY=1.006;entryDx=0;entryDy=0;entryPerimeter=0;" parent="1" source="qN9n4UM56Keu8omTE9ro-1" target="qN9n4UM56Keu8omTE9ro-56" edge="1">
          <mxGeometry width="50" height="50" relative="1" as="geometry">
            <mxPoint x="789.37" y="1350" as="sourcePoint" />
            <mxPoint x="789.37" y="1400" as="targetPoint" />
          </mxGeometry>
        </mxCell>
        <mxCell id="qN9n4UM56Keu8omTE9ro-9" value="ALU" style="text;html=1;align=center;verticalAlign=middle;resizable=0;points=[];autosize=1;strokeColor=none;fillColor=none;" parent="1" vertex="1">
          <mxGeometry x="729.37" y="1490" width="50" height="30" as="geometry" />
        </mxCell>
        <mxCell id="qN9n4UM56Keu8omTE9ro-11" value="" style="endArrow=none;html=1;rounded=0;" parent="1" edge="1">
          <mxGeometry width="50" height="50" relative="1" as="geometry">
            <mxPoint x="759.37" y="1520" as="sourcePoint" />
            <mxPoint x="759.37" y="1570" as="targetPoint" />
          </mxGeometry>
        </mxCell>
        <mxCell id="qN9n4UM56Keu8omTE9ro-15" value="" style="endArrow=classic;html=1;rounded=0;" parent="1" edge="1">
          <mxGeometry width="50" height="50" relative="1" as="geometry">
            <mxPoint x="669.37" y="1480" as="sourcePoint" />
            <mxPoint x="609.37" y="1480" as="targetPoint" />
          </mxGeometry>
        </mxCell>
        <mxCell id="qN9n4UM56Keu8omTE9ro-16" value="&lt;font style=&quot;font-size: 11px;&quot;&gt;flags&lt;/font&gt;" style="text;html=1;align=center;verticalAlign=middle;resizable=0;points=[];autosize=1;strokeColor=none;fillColor=none;" parent="1" vertex="1">
          <mxGeometry x="619.37" y="1478" width="50" height="30" as="geometry" />
        </mxCell>
        <mxCell id="qN9n4UM56Keu8omTE9ro-17" value="" style="endArrow=classic;html=1;rounded=0;" parent="1" edge="1">
          <mxGeometry width="50" height="50" relative="1" as="geometry">
            <mxPoint x="909.37" y="1480" as="sourcePoint" />
            <mxPoint x="849.37" y="1480" as="targetPoint" />
          </mxGeometry>
        </mxCell>
        <mxCell id="qN9n4UM56Keu8omTE9ro-18" value="&lt;font style=&quot;font-size: 11px;&quot;&gt;instr&lt;/font&gt;" style="text;html=1;align=center;verticalAlign=middle;resizable=0;points=[];autosize=1;strokeColor=none;fillColor=none;" parent="1" vertex="1">
          <mxGeometry x="859.37" y="1478" width="40" height="30" as="geometry" />
        </mxCell>
        <mxCell id="qN9n4UM56Keu8omTE9ro-19" value="Memory" style="rounded=0;whiteSpace=wrap;html=1;" parent="1" vertex="1">
          <mxGeometry x="1119.37" y="1300" width="120" height="130" as="geometry" />
        </mxCell>
        <mxCell id="qN9n4UM56Keu8omTE9ro-20" value="Instruction decoder" style="rounded=0;whiteSpace=wrap;html=1;" parent="1" vertex="1">
          <mxGeometry x="1419.37" y="1240" width="120" height="60" as="geometry" />
        </mxCell>
        <mxCell id="qN9n4UM56Keu8omTE9ro-24" value="instruction pointer" style="rounded=0;whiteSpace=wrap;html=1;" parent="1" vertex="1">
          <mxGeometry x="1429.37" y="1410" width="120" height="60" as="geometry" />
        </mxCell>
        <mxCell id="qN9n4UM56Keu8omTE9ro-26" value="" style="endArrow=classic;html=1;rounded=0;entryX=0.318;entryY=1.047;entryDx=0;entryDy=0;entryPerimeter=0;" parent="1" target="qN9n4UM56Keu8omTE9ro-54" edge="1">
          <mxGeometry width="50" height="50" relative="1" as="geometry">
            <mxPoint x="849.37" y="1570" as="sourcePoint" />
            <mxPoint x="1089.37" y="1540" as="targetPoint" />
            <Array as="points">
              <mxPoint x="1164.37" y="1570" />
            </Array>
          </mxGeometry>
        </mxCell>
        <mxCell id="qN9n4UM56Keu8omTE9ro-27" value="" style="endArrow=classic;html=1;rounded=0;" parent="1" edge="1">
          <mxGeometry width="50" height="50" relative="1" as="geometry">
            <mxPoint x="1059.37" y="1392" as="sourcePoint" />
            <mxPoint x="1119.37" y="1392" as="targetPoint" />
          </mxGeometry>
        </mxCell>
        <mxCell id="qN9n4UM56Keu8omTE9ro-28" value="&lt;font style=&quot;font-size: 11px;&quot;&gt;write&lt;/font&gt;" style="text;html=1;align=center;verticalAlign=middle;resizable=0;points=[];autosize=1;strokeColor=none;fillColor=none;" parent="1" vertex="1">
          <mxGeometry x="1059.37" y="1390" width="50" height="30" as="geometry" />
        </mxCell>
        <mxCell id="qN9n4UM56Keu8omTE9ro-31" value="" style="endArrow=classic;html=1;rounded=0;" parent="1" edge="1">
          <mxGeometry width="50" height="50" relative="1" as="geometry">
            <mxPoint x="1059.37" y="1362" as="sourcePoint" />
            <mxPoint x="1119.37" y="1362" as="targetPoint" />
          </mxGeometry>
        </mxCell>
        <mxCell id="qN9n4UM56Keu8omTE9ro-32" value="&lt;font style=&quot;font-size: 11px;&quot;&gt;read&lt;/font&gt;" style="text;html=1;align=center;verticalAlign=middle;resizable=0;points=[];autosize=1;strokeColor=none;fillColor=none;" parent="1" vertex="1">
          <mxGeometry x="1059.37" y="1360" width="50" height="30" as="geometry" />
        </mxCell>
        <mxCell id="qN9n4UM56Keu8omTE9ro-34" value="" style="endArrow=classic;html=1;rounded=0;exitX=0.5;exitY=1;exitDx=0;exitDy=0;entryX=0.62;entryY=1.05;entryDx=0;entryDy=0;entryPerimeter=0;" parent="1" source="qN9n4UM56Keu8omTE9ro-24" target="qN9n4UM56Keu8omTE9ro-54" edge="1">
          <mxGeometry width="50" height="50" relative="1" as="geometry">
            <mxPoint x="1069.37" y="1580" as="sourcePoint" />
            <mxPoint x="1196.8999999999999" y="1590.9" as="targetPoint" />
            <Array as="points">
              <mxPoint x="1489.37" y="1570" />
              <mxPoint x="1189.37" y="1570" />
            </Array>
          </mxGeometry>
        </mxCell>
        <mxCell id="qN9n4UM56Keu8omTE9ro-54" value="MUX" style="shape=trapezoid;perimeter=trapezoidPerimeter;whiteSpace=wrap;html=1;fixedSize=1;" parent="1" vertex="1">
          <mxGeometry x="1139.37" y="1528" width="80" height="22" as="geometry" />
        </mxCell>
        <mxCell id="qN9n4UM56Keu8omTE9ro-55" value="" style="endArrow=classic;html=1;rounded=0;exitX=0.5;exitY=0;exitDx=0;exitDy=0;entryX=0.5;entryY=1;entryDx=0;entryDy=0;" parent="1" source="qN9n4UM56Keu8omTE9ro-89" target="qN9n4UM56Keu8omTE9ro-110" edge="1">
          <mxGeometry width="50" height="50" relative="1" as="geometry">
            <mxPoint x="1104.37" y="1560" as="sourcePoint" />
            <mxPoint x="1179.37" y="1390" as="targetPoint" />
          </mxGeometry>
        </mxCell>
        <mxCell id="qN9n4UM56Keu8omTE9ro-56" value="" style="shape=trapezoid;perimeter=trapezoidPerimeter;whiteSpace=wrap;html=1;fixedSize=1;rotation=-180;rounded=0;shadow=0;" parent="1" vertex="1">
          <mxGeometry x="624.37" y="1398" width="120" height="32" as="geometry" />
        </mxCell>
        <mxCell id="qN9n4UM56Keu8omTE9ro-58" value="MUX" style="text;html=1;align=center;verticalAlign=middle;whiteSpace=wrap;rounded=0;" parent="1" vertex="1">
          <mxGeometry x="654.37" y="1400" width="60" height="30" as="geometry" />
        </mxCell>
        <mxCell id="qN9n4UM56Keu8omTE9ro-59" value="" style="shape=trapezoid;perimeter=trapezoidPerimeter;whiteSpace=wrap;html=1;fixedSize=1;rotation=-180;rounded=0;shadow=0;" parent="1" vertex="1">
          <mxGeometry x="769.37" y="1398" width="120" height="32" as="geometry" />
        </mxCell>
        <mxCell id="qN9n4UM56Keu8omTE9ro-61" value="MUX" style="text;html=1;align=center;verticalAlign=middle;whiteSpace=wrap;rounded=0;" parent="1" vertex="1">
          <mxGeometry x="799.37" y="1399" width="60" height="30" as="geometry" />
        </mxCell>
        <mxCell id="qN9n4UM56Keu8omTE9ro-62" value="" style="shape=trapezoid;perimeter=trapezoidPerimeter;whiteSpace=wrap;html=1;fixedSize=1;rotation=-180;" parent="1" vertex="1">
          <mxGeometry x="1429.37" y="1352" width="120" height="30" as="geometry" />
        </mxCell>
        <mxCell id="qN9n4UM56Keu8omTE9ro-63" value="MUX" style="text;html=1;align=center;verticalAlign=middle;whiteSpace=wrap;rounded=0;" parent="1" vertex="1">
          <mxGeometry x="1459.37" y="1350" width="60" height="30" as="geometry" />
        </mxCell>
        <mxCell id="qN9n4UM56Keu8omTE9ro-64" value="" style="endArrow=classic;html=1;rounded=0;entryX=0.5;entryY=0;entryDx=0;entryDy=0;exitX=0.5;exitY=0;exitDx=0;exitDy=0;" parent="1" source="qN9n4UM56Keu8omTE9ro-62" target="qN9n4UM56Keu8omTE9ro-24" edge="1">
          <mxGeometry width="50" height="50" relative="1" as="geometry">
            <mxPoint x="1399.37" y="1410" as="sourcePoint" />
            <mxPoint x="1449.37" y="1360" as="targetPoint" />
          </mxGeometry>
        </mxCell>
        <mxCell id="qN9n4UM56Keu8omTE9ro-65" value="" style="endArrow=classic;html=1;rounded=0;exitX=1;exitY=0.5;exitDx=0;exitDy=0;entryX=0.25;entryY=1;entryDx=0;entryDy=0;" parent="1" source="qN9n4UM56Keu8omTE9ro-24" target="qN9n4UM56Keu8omTE9ro-62" edge="1">
          <mxGeometry width="50" height="50" relative="1" as="geometry">
            <mxPoint x="1559.37" y="1520" as="sourcePoint" />
            <mxPoint x="1469.37" y="1340" as="targetPoint" />
            <Array as="points">
              <mxPoint x="1589.37" y="1440" />
              <mxPoint x="1589.37" y="1340" />
              <mxPoint x="1519.37" y="1340" />
            </Array>
          </mxGeometry>
        </mxCell>
        <mxCell id="qN9n4UM56Keu8omTE9ro-66" value="+1" style="edgeLabel;html=1;align=center;verticalAlign=middle;resizable=0;points=[];" parent="qN9n4UM56Keu8omTE9ro-65" vertex="1" connectable="0">
          <mxGeometry x="-0.2624" relative="1" as="geometry">
            <mxPoint as="offset" />
          </mxGeometry>
        </mxCell>
        <mxCell id="qN9n4UM56Keu8omTE9ro-67" value="" style="endArrow=classic;html=1;rounded=0;" parent="1" edge="1">
          <mxGeometry width="50" height="50" relative="1" as="geometry">
            <mxPoint x="804.37" y="1210" as="sourcePoint" />
            <mxPoint x="804.37" y="1250" as="targetPoint" />
          </mxGeometry>
        </mxCell>
        <mxCell id="qN9n4UM56Keu8omTE9ro-69" value="&lt;font style=&quot;font-size: 11px;&quot;&gt;latch_general_reg&lt;/font&gt;" style="text;html=1;align=center;verticalAlign=middle;resizable=0;points=[];autosize=1;strokeColor=none;fillColor=none;" parent="1" vertex="1">
          <mxGeometry x="799.37" y="1210" width="110" height="30" as="geometry" />
        </mxCell>
        <mxCell id="qN9n4UM56Keu8omTE9ro-72" value="" style="endArrow=classic;html=1;rounded=0;entryX=0.5;entryY=0;entryDx=0;entryDy=0;exitX=0.5;exitY=0;exitDx=0;exitDy=0;" parent="1" source="ngwG8sHYqxbEtw7EwDFG-26" target="qN9n4UM56Keu8omTE9ro-20" edge="1">
          <mxGeometry width="50" height="50" relative="1" as="geometry">
            <mxPoint x="1199.37" y="1220" as="sourcePoint" />
            <mxPoint x="1229.37" y="1270" as="targetPoint" />
            <Array as="points">
              <mxPoint x="1199.37" y="1220" />
              <mxPoint x="1479.37" y="1220" />
            </Array>
          </mxGeometry>
        </mxCell>
        <mxCell id="qN9n4UM56Keu8omTE9ro-73" value="" style="endArrow=classic;html=1;rounded=0;exitX=1;exitY=0.5;exitDx=0;exitDy=0;" parent="1" source="qN9n4UM56Keu8omTE9ro-20" edge="1">
          <mxGeometry width="50" height="50" relative="1" as="geometry">
            <mxPoint x="1559.37" y="1269.76" as="sourcePoint" />
            <mxPoint x="1619.37" y="1270" as="targetPoint" />
          </mxGeometry>
        </mxCell>
        <mxCell id="qN9n4UM56Keu8omTE9ro-75" value="&lt;font style=&quot;font-size: 11px;&quot;&gt;sig_to_DP&lt;/font&gt;" style="text;html=1;align=center;verticalAlign=middle;whiteSpace=wrap;rounded=0;" parent="1" vertex="1">
          <mxGeometry x="1547.37" y="1240" width="60" height="30" as="geometry" />
        </mxCell>
        <mxCell id="qN9n4UM56Keu8omTE9ro-77" value="" style="endArrow=classic;html=1;rounded=0;entryX=0.5;entryY=1;entryDx=0;entryDy=0;" parent="1" target="qN9n4UM56Keu8omTE9ro-62" edge="1">
          <mxGeometry width="50" height="50" relative="1" as="geometry">
            <mxPoint x="759.37" y="1570" as="sourcePoint" />
            <mxPoint x="994.37" y="1580" as="targetPoint" />
            <Array as="points">
              <mxPoint x="759.37" y="1590" />
              <mxPoint x="1709.37" y="1590" />
              <mxPoint x="1709.37" y="1330" />
              <mxPoint x="1489.37" y="1330" />
            </Array>
          </mxGeometry>
        </mxCell>
        <mxCell id="qN9n4UM56Keu8omTE9ro-79" value="" style="endArrow=classic;html=1;rounded=0;exitX=-0.003;exitY=0.718;exitDx=0;exitDy=0;entryX=0;entryY=0.5;entryDx=0;entryDy=0;exitPerimeter=0;" parent="1" source="qN9n4UM56Keu8omTE9ro-20" target="qN9n4UM56Keu8omTE9ro-24" edge="1">
          <mxGeometry width="50" height="50" relative="1" as="geometry">
            <mxPoint x="1319.37" y="1160" as="sourcePoint" />
            <mxPoint x="1399.37" y="1180" as="targetPoint" />
            <Array as="points">
              <mxPoint x="1369.37" y="1283" />
              <mxPoint x="1369.37" y="1440" />
            </Array>
          </mxGeometry>
        </mxCell>
        <mxCell id="qN9n4UM56Keu8omTE9ro-84" value="latch_ip&lt;div&gt;&lt;br&gt;&lt;/div&gt;" style="edgeLabel;html=1;align=center;verticalAlign=middle;resizable=0;points=[];" parent="qN9n4UM56Keu8omTE9ro-79" vertex="1" connectable="0">
          <mxGeometry x="-0.0623" relative="1" as="geometry">
            <mxPoint as="offset" />
          </mxGeometry>
        </mxCell>
        <mxCell id="qN9n4UM56Keu8omTE9ro-90" value="" style="endArrow=classic;html=1;rounded=0;exitX=0.5;exitY=0;exitDx=0;exitDy=0;entryX=0.5;entryY=1;entryDx=0;entryDy=0;" parent="1" source="qN9n4UM56Keu8omTE9ro-54" target="qN9n4UM56Keu8omTE9ro-89" edge="1">
          <mxGeometry width="50" height="50" relative="1" as="geometry">
            <mxPoint x="1179.37" y="1506" as="sourcePoint" />
            <mxPoint x="1179.37" y="1470" as="targetPoint" />
          </mxGeometry>
        </mxCell>
        <mxCell id="qN9n4UM56Keu8omTE9ro-89" value="address reg" style="rounded=0;whiteSpace=wrap;html=1;" parent="1" vertex="1">
          <mxGeometry x="1119.37" y="1490" width="120" height="20" as="geometry" />
        </mxCell>
        <mxCell id="qN9n4UM56Keu8omTE9ro-91" value="" style="endArrow=classic;html=1;rounded=0;entryX=0.624;entryY=0.996;entryDx=0;entryDy=0;entryPerimeter=0;" parent="1" target="bIrbUYFAm6PakOb2XTO1-1" edge="1">
          <mxGeometry width="50" height="50" relative="1" as="geometry">
            <mxPoint x="849.37" y="1570" as="sourcePoint" />
            <mxPoint x="759.37" y="1130" as="targetPoint" />
            <Array as="points">
              <mxPoint x="459.37" y="1570" />
              <mxPoint x="459.37" y="1150" />
              <mxPoint x="759.37" y="1150" />
            </Array>
          </mxGeometry>
        </mxCell>
        <mxCell id="qN9n4UM56Keu8omTE9ro-92" value="" style="endArrow=classic;html=1;rounded=0;entryX=1;entryY=0.5;entryDx=0;entryDy=0;exitX=0;exitY=0.25;exitDx=0;exitDy=0;" parent="1" source="qN9n4UM56Keu8omTE9ro-20" target="qN9n4UM56Keu8omTE9ro-89" edge="1">
          <mxGeometry width="50" height="50" relative="1" as="geometry">
            <mxPoint x="1399.37" y="1280" as="sourcePoint" />
            <mxPoint x="1339.37" y="1500" as="targetPoint" />
            <Array as="points">
              <mxPoint x="1259.37" y="1255" />
              <mxPoint x="1259.37" y="1500" />
            </Array>
          </mxGeometry>
        </mxCell>
        <mxCell id="qN9n4UM56Keu8omTE9ro-103" value="&lt;span style=&quot;text-wrap: wrap; background-color: rgb(251, 251, 251);&quot;&gt;&lt;font style=&quot;font-size: 11px;&quot;&gt;latch_addr&lt;/font&gt;&lt;/span&gt;" style="edgeLabel;html=1;align=center;verticalAlign=middle;resizable=0;points=[];" parent="qN9n4UM56Keu8omTE9ro-92" vertex="1" connectable="0">
          <mxGeometry x="0.2098" y="-2" relative="1" as="geometry">
            <mxPoint x="2" y="118" as="offset" />
          </mxGeometry>
        </mxCell>
        <mxCell id="qN9n4UM56Keu8omTE9ro-94" value="" style="endArrow=classic;html=1;rounded=0;entryX=1;entryY=0.5;entryDx=0;entryDy=0;" parent="1" target="qN9n4UM56Keu8omTE9ro-56" edge="1">
          <mxGeometry width="50" height="50" relative="1" as="geometry">
            <mxPoint x="564.37" y="1414" as="sourcePoint" />
            <mxPoint x="604.37" y="1418" as="targetPoint" />
          </mxGeometry>
        </mxCell>
        <mxCell id="qN9n4UM56Keu8omTE9ro-95" value="&lt;font style=&quot;font-size: 11px;&quot;&gt;sigAluL&lt;/font&gt;" style="text;html=1;align=center;verticalAlign=middle;whiteSpace=wrap;rounded=0;" parent="1" vertex="1">
          <mxGeometry x="564.37" y="1382" width="60" height="30" as="geometry" />
        </mxCell>
        <mxCell id="qN9n4UM56Keu8omTE9ro-96" value="" style="endArrow=classic;html=1;rounded=0;entryX=0;entryY=0.5;entryDx=0;entryDy=0;" parent="1" target="qN9n4UM56Keu8omTE9ro-59" edge="1">
          <mxGeometry width="50" height="50" relative="1" as="geometry">
            <mxPoint x="949.37" y="1414" as="sourcePoint" />
            <mxPoint x="949.37" y="1420" as="targetPoint" />
          </mxGeometry>
        </mxCell>
        <mxCell id="qN9n4UM56Keu8omTE9ro-97" value="&lt;font style=&quot;font-size: 11px;&quot;&gt;sigAluR&lt;/font&gt;" style="text;html=1;align=center;verticalAlign=middle;whiteSpace=wrap;rounded=0;" parent="1" vertex="1">
          <mxGeometry x="889.37" y="1382" width="60" height="30" as="geometry" />
        </mxCell>
        <mxCell id="qN9n4UM56Keu8omTE9ro-98" value="" style="endArrow=none;dashed=1;html=1;dashPattern=1 3;strokeWidth=5;rounded=0;" parent="1" edge="1">
          <mxGeometry width="50" height="50" relative="1" as="geometry">
            <mxPoint x="1329.37" y="1610" as="sourcePoint" />
            <mxPoint x="1329.37" y="1180" as="targetPoint" />
          </mxGeometry>
        </mxCell>
        <mxCell id="qN9n4UM56Keu8omTE9ro-105" value="" style="endArrow=classic;html=1;rounded=0;exitX=-0.003;exitY=0.912;exitDx=0;exitDy=0;entryX=1;entryY=0.5;entryDx=0;entryDy=0;exitPerimeter=0;" parent="1" source="qN9n4UM56Keu8omTE9ro-20" target="qN9n4UM56Keu8omTE9ro-62" edge="1">
          <mxGeometry width="50" height="50" relative="1" as="geometry">
            <mxPoint x="1359.37" y="1360" as="sourcePoint" />
            <mxPoint x="1409.37" y="1310" as="targetPoint" />
            <Array as="points">
              <mxPoint x="1399.37" y="1295" />
              <mxPoint x="1399.37" y="1367" />
            </Array>
          </mxGeometry>
        </mxCell>
        <mxCell id="qN9n4UM56Keu8omTE9ro-106" value="sig_ip" style="edgeLabel;html=1;align=center;verticalAlign=middle;resizable=0;points=[];" parent="qN9n4UM56Keu8omTE9ro-105" vertex="1" connectable="0">
          <mxGeometry x="-0.1912" y="1" relative="1" as="geometry">
            <mxPoint as="offset" />
          </mxGeometry>
        </mxCell>
        <mxCell id="qN9n4UM56Keu8omTE9ro-107" value="" style="endArrow=classic;html=1;rounded=0;exitX=0;exitY=0.5;exitDx=0;exitDy=0;entryX=1;entryY=0.5;entryDx=0;entryDy=0;" parent="1" source="qN9n4UM56Keu8omTE9ro-20" target="qN9n4UM56Keu8omTE9ro-54" edge="1">
          <mxGeometry width="50" height="50" relative="1" as="geometry">
            <mxPoint x="1359.37" y="1340" as="sourcePoint" />
            <mxPoint x="1239.37" y="1530" as="targetPoint" />
            <Array as="points">
              <mxPoint x="1289.37" y="1270" />
              <mxPoint x="1289.37" y="1540" />
            </Array>
          </mxGeometry>
        </mxCell>
        <mxCell id="qN9n4UM56Keu8omTE9ro-109" value="sig_addr" style="edgeLabel;html=1;align=center;verticalAlign=middle;resizable=0;points=[];" parent="qN9n4UM56Keu8omTE9ro-107" vertex="1" connectable="0">
          <mxGeometry x="0.1732" relative="1" as="geometry">
            <mxPoint y="78" as="offset" />
          </mxGeometry>
        </mxCell>
        <mxCell id="qN9n4UM56Keu8omTE9ro-110" value="Stack" style="rounded=0;whiteSpace=wrap;html=1;" parent="1" vertex="1">
          <mxGeometry x="1119.37" y="1430" width="120" height="20" as="geometry" />
        </mxCell>
        <mxCell id="qN9n4UM56Keu8omTE9ro-111" value="stack reg" style="rounded=0;whiteSpace=wrap;html=1;" parent="1" vertex="1">
          <mxGeometry x="609.37" y="1310" width="80" height="28" as="geometry" />
        </mxCell>
        <mxCell id="qN9n4UM56Keu8omTE9ro-112" value="" style="endArrow=classic;html=1;rounded=0;exitX=0.75;exitY=1;exitDx=0;exitDy=0;entryX=0.628;entryY=1.035;entryDx=0;entryDy=0;entryPerimeter=0;" parent="1" source="qN9n4UM56Keu8omTE9ro-111" target="qN9n4UM56Keu8omTE9ro-56" edge="1">
          <mxGeometry width="50" height="50" relative="1" as="geometry">
            <mxPoint x="859.37" y="1350" as="sourcePoint" />
            <mxPoint x="659.37" y="1390" as="targetPoint" />
          </mxGeometry>
        </mxCell>
        <mxCell id="qN9n4UM56Keu8omTE9ro-113" value="" style="endArrow=classic;html=1;rounded=0;" parent="1" edge="1">
          <mxGeometry width="50" height="50" relative="1" as="geometry">
            <mxPoint x="659.1700000000001" y="1270" as="sourcePoint" />
            <mxPoint x="659.1700000000001" y="1310" as="targetPoint" />
          </mxGeometry>
        </mxCell>
        <mxCell id="qN9n4UM56Keu8omTE9ro-114" value="&lt;font style=&quot;font-size: 11px;&quot;&gt;latch_stack_reg&lt;/font&gt;" style="text;html=1;align=center;verticalAlign=middle;resizable=0;points=[];autosize=1;strokeColor=none;fillColor=none;" parent="1" vertex="1">
          <mxGeometry x="564.37" y="1270" width="100" height="30" as="geometry" />
        </mxCell>
        <mxCell id="qN9n4UM56Keu8omTE9ro-115" value="" style="endArrow=classic;html=1;rounded=0;entryX=0;entryY=0.5;entryDx=0;entryDy=0;exitX=0.5;exitY=0;exitDx=0;exitDy=0;" parent="1" source="bIrbUYFAm6PakOb2XTO1-7" target="qN9n4UM56Keu8omTE9ro-111" edge="1">
          <mxGeometry width="50" height="50" relative="1" as="geometry">
            <mxPoint x="539.37" y="1324" as="sourcePoint" />
            <mxPoint x="639.37" y="1280" as="targetPoint" />
          </mxGeometry>
        </mxCell>
        <mxCell id="bIrbUYFAm6PakOb2XTO1-1" value="" style="shape=trapezoid;perimeter=trapezoidPerimeter;whiteSpace=wrap;html=1;fixedSize=1;rotation=-180;rounded=0;shadow=0;" parent="1" vertex="1">
          <mxGeometry x="714.37" y="1170" width="120" height="32" as="geometry" />
        </mxCell>
        <mxCell id="bIrbUYFAm6PakOb2XTO1-2" value="MUX" style="text;html=1;align=center;verticalAlign=middle;whiteSpace=wrap;rounded=0;" parent="1" vertex="1">
          <mxGeometry x="744.37" y="1172" width="60" height="30" as="geometry" />
        </mxCell>
        <mxCell id="bIrbUYFAm6PakOb2XTO1-3" value="" style="endArrow=classic;html=1;rounded=0;exitX=0.5;exitY=1;exitDx=0;exitDy=0;entryX=0.527;entryY=0.011;entryDx=0;entryDy=0;entryPerimeter=0;" parent="1" source="bIrbUYFAm6PakOb2XTO1-2" target="qN9n4UM56Keu8omTE9ro-1" edge="1">
          <mxGeometry width="50" height="50" relative="1" as="geometry">
            <mxPoint x="654.37" y="1190" as="sourcePoint" />
            <mxPoint x="704.37" y="1140" as="targetPoint" />
          </mxGeometry>
        </mxCell>
        <mxCell id="bIrbUYFAm6PakOb2XTO1-4" value="" style="endArrow=classic;html=1;rounded=0;entryX=0.942;entryY=0.474;entryDx=0;entryDy=0;entryPerimeter=0;" parent="1" target="bIrbUYFAm6PakOb2XTO1-1" edge="1">
          <mxGeometry width="50" height="50" relative="1" as="geometry">
            <mxPoint x="589.37" y="1187" as="sourcePoint" />
            <mxPoint x="709.37" y="1190" as="targetPoint" />
          </mxGeometry>
        </mxCell>
        <mxCell id="bIrbUYFAm6PakOb2XTO1-5" value="&lt;font style=&quot;font-size: 11px;&quot;&gt;sig_general_reg&lt;/font&gt;" style="text;html=1;align=center;verticalAlign=middle;resizable=0;points=[];autosize=1;strokeColor=none;fillColor=none;" parent="1" vertex="1">
          <mxGeometry x="599.37" y="1160" width="100" height="30" as="geometry" />
        </mxCell>
        <mxCell id="bIrbUYFAm6PakOb2XTO1-7" value="" style="shape=trapezoid;perimeter=trapezoidPerimeter;whiteSpace=wrap;html=1;fixedSize=1;rotation=90;rounded=0;shadow=0;" parent="1" vertex="1">
          <mxGeometry x="509.37" y="1310" width="90" height="30" as="geometry" />
        </mxCell>
        <mxCell id="bIrbUYFAm6PakOb2XTO1-8" value="MUX" style="text;html=1;align=center;verticalAlign=middle;whiteSpace=wrap;rounded=0;" parent="1" vertex="1">
          <mxGeometry x="524.37" y="1310" width="60" height="30" as="geometry" />
        </mxCell>
        <mxCell id="bIrbUYFAm6PakOb2XTO1-9" value="" style="endArrow=classic;html=1;rounded=0;entryX=0.777;entryY=1.007;entryDx=0;entryDy=0;entryPerimeter=0;" parent="1" target="bIrbUYFAm6PakOb2XTO1-7" edge="1">
          <mxGeometry width="50" height="50" relative="1" as="geometry">
            <mxPoint x="669.37" y="1380" as="sourcePoint" />
            <mxPoint x="609.37" y="1330" as="targetPoint" />
            <Array as="points">
              <mxPoint x="499.37" y="1380" />
              <mxPoint x="499.37" y="1350" />
            </Array>
          </mxGeometry>
        </mxCell>
        <mxCell id="HIkKj7lQl-brb_pWAjZc-10" value="-1" style="edgeLabel;html=1;align=center;verticalAlign=middle;resizable=0;points=[];" parent="bIrbUYFAm6PakOb2XTO1-9" vertex="1" connectable="0">
          <mxGeometry x="0.8002" relative="1" as="geometry">
            <mxPoint as="offset" />
          </mxGeometry>
        </mxCell>
        <mxCell id="bIrbUYFAm6PakOb2XTO1-10" value="" style="endArrow=classic;html=1;rounded=0;entryX=0.223;entryY=1.027;entryDx=0;entryDy=0;entryPerimeter=0;" parent="1" target="bIrbUYFAm6PakOb2XTO1-7" edge="1">
          <mxGeometry width="50" height="50" relative="1" as="geometry">
            <mxPoint x="499.37" y="1350" as="sourcePoint" />
            <mxPoint x="523.37" y="1290" as="targetPoint" />
            <Array as="points">
              <mxPoint x="499.37" y="1300" />
            </Array>
          </mxGeometry>
        </mxCell>
        <mxCell id="HIkKj7lQl-brb_pWAjZc-9" value="+1" style="edgeLabel;html=1;align=center;verticalAlign=middle;resizable=0;points=[];" parent="bIrbUYFAm6PakOb2XTO1-10" vertex="1" connectable="0">
          <mxGeometry x="0.4719" relative="1" as="geometry">
            <mxPoint as="offset" />
          </mxGeometry>
        </mxCell>
        <mxCell id="bIrbUYFAm6PakOb2XTO1-15" value="" style="endArrow=classic;html=1;rounded=0;entryX=0;entryY=0.5;entryDx=0;entryDy=0;" parent="1" target="bIrbUYFAm6PakOb2XTO1-7" edge="1">
          <mxGeometry width="50" height="50" relative="1" as="geometry">
            <mxPoint x="554.23" y="1231" as="sourcePoint" />
            <mxPoint x="554.13" y="1285.5" as="targetPoint" />
          </mxGeometry>
        </mxCell>
        <mxCell id="bIrbUYFAm6PakOb2XTO1-16" value="sig_sp" style="text;html=1;align=center;verticalAlign=middle;whiteSpace=wrap;rounded=0;" parent="1" vertex="1">
          <mxGeometry x="504.37" y="1240" width="60" height="30" as="geometry" />
        </mxCell>
        <mxCell id="XdM_GPnIFtBP77IQAVmx-1" value="" style="endArrow=classic;html=1;rounded=0;entryX=0.75;entryY=1;entryDx=0;entryDy=0;" parent="1" target="qN9n4UM56Keu8omTE9ro-62" edge="1">
          <mxGeometry width="50" height="50" relative="1" as="geometry">
            <mxPoint x="1199.37" y="1140" as="sourcePoint" />
            <mxPoint x="1429.37" y="1230" as="targetPoint" />
            <Array as="points">
              <mxPoint x="1659.37" y="1140" />
              <mxPoint x="1659.37" y="1320" />
              <mxPoint x="1459.37" y="1320" />
            </Array>
          </mxGeometry>
        </mxCell>
        <mxCell id="ngwG8sHYqxbEtw7EwDFG-8" value="" style="endArrow=classic;html=1;rounded=0;exitX=0.5;exitY=0;exitDx=0;exitDy=0;entryX=0.634;entryY=1.055;entryDx=0;entryDy=0;entryPerimeter=0;" parent="1" source="ngwG8sHYqxbEtw7EwDFG-26" target="ngwG8sHYqxbEtw7EwDFG-10" edge="1">
          <mxGeometry width="50" height="50" relative="1" as="geometry">
            <mxPoint x="1128.49" y="1139.996" as="sourcePoint" />
            <mxPoint x="1059.37" y="1110" as="targetPoint" />
            <Array as="points">
              <mxPoint x="1199.37" y="1140" />
            </Array>
          </mxGeometry>
        </mxCell>
        <mxCell id="ngwG8sHYqxbEtw7EwDFG-29" value="bit_mask" style="edgeLabel;html=1;align=center;verticalAlign=middle;resizable=0;points=[];" parent="ngwG8sHYqxbEtw7EwDFG-8" vertex="1" connectable="0">
          <mxGeometry x="-0.6403" y="-1" relative="1" as="geometry">
            <mxPoint as="offset" />
          </mxGeometry>
        </mxCell>
        <mxCell id="ngwG8sHYqxbEtw7EwDFG-9" value="" style="endArrow=classic;html=1;rounded=0;entryX=0.217;entryY=0.98;entryDx=0;entryDy=0;entryPerimeter=0;exitX=0.5;exitY=0;exitDx=0;exitDy=0;" parent="1" source="ngwG8sHYqxbEtw7EwDFG-26" target="ngwG8sHYqxbEtw7EwDFG-10" edge="1">
          <mxGeometry width="50" height="50" relative="1" as="geometry">
            <mxPoint x="1299.37" y="1190" as="sourcePoint" />
            <mxPoint x="1179.37" y="1200" as="targetPoint" />
            <Array as="points">
              <mxPoint x="1199.37" y="1190" />
            </Array>
          </mxGeometry>
        </mxCell>
        <mxCell id="ngwG8sHYqxbEtw7EwDFG-10" value="" style="shape=trapezoid;perimeter=trapezoidPerimeter;whiteSpace=wrap;html=1;fixedSize=1;rotation=-90;rounded=0;shadow=0;" parent="1" vertex="1">
          <mxGeometry x="849.37" y="1140" width="120" height="32" as="geometry" />
        </mxCell>
        <mxCell id="ngwG8sHYqxbEtw7EwDFG-11" value="MUX" style="text;html=1;align=center;verticalAlign=middle;whiteSpace=wrap;rounded=0;" parent="1" vertex="1">
          <mxGeometry x="879.37" y="1142" width="60" height="30" as="geometry" />
        </mxCell>
        <mxCell id="ngwG8sHYqxbEtw7EwDFG-12" value="" style="endArrow=classic;html=1;rounded=0;exitX=0.552;exitY=-0.005;exitDx=0;exitDy=0;entryX=0.25;entryY=1;entryDx=0;entryDy=0;exitPerimeter=0;" parent="1" source="ngwG8sHYqxbEtw7EwDFG-10" target="bIrbUYFAm6PakOb2XTO1-1" edge="1">
          <mxGeometry width="50" height="50" relative="1" as="geometry">
            <mxPoint x="889.37" y="1190" as="sourcePoint" />
            <mxPoint x="939.37" y="1140" as="targetPoint" />
            <Array as="points">
              <mxPoint x="804.37" y="1150" />
            </Array>
          </mxGeometry>
        </mxCell>
        <mxCell id="ngwG8sHYqxbEtw7EwDFG-13" value="" style="endArrow=classic;html=1;rounded=0;entryX=1;entryY=0.5;entryDx=0;entryDy=0;" parent="1" target="ngwG8sHYqxbEtw7EwDFG-10" edge="1">
          <mxGeometry width="50" height="50" relative="1" as="geometry">
            <mxPoint x="909.37" y="1030" as="sourcePoint" />
            <mxPoint x="874.37" y="1070" as="targetPoint" />
          </mxGeometry>
        </mxCell>
        <mxCell id="ngwG8sHYqxbEtw7EwDFG-14" value="&lt;font style=&quot;font-size: 11px;&quot;&gt;sig_instr&lt;/font&gt;" style="text;html=1;align=center;verticalAlign=middle;whiteSpace=wrap;rounded=0;" parent="1" vertex="1">
          <mxGeometry x="904.37" y="1050" width="60" height="30" as="geometry" />
        </mxCell>
        <mxCell id="ngwG8sHYqxbEtw7EwDFG-20" value="" style="endArrow=classic;html=1;rounded=0;exitX=0.666;exitY=0.003;exitDx=0;exitDy=0;entryX=0.5;entryY=1;entryDx=0;entryDy=0;exitPerimeter=0;" parent="1" source="qN9n4UM56Keu8omTE9ro-19" target="ngwG8sHYqxbEtw7EwDFG-26" edge="1">
          <mxGeometry width="50" height="50" relative="1" as="geometry">
            <mxPoint x="1199.37" y="1300" as="sourcePoint" />
            <mxPoint x="1111.05" y="1140.108" as="targetPoint" />
            <Array as="points" />
          </mxGeometry>
        </mxCell>
        <mxCell id="ngwG8sHYqxbEtw7EwDFG-26" value="Data reg" style="rounded=0;whiteSpace=wrap;html=1;" parent="1" vertex="1">
          <mxGeometry x="1159.37" y="1231" width="80" height="28" as="geometry" />
        </mxCell>
        <mxCell id="ngwG8sHYqxbEtw7EwDFG-30" value="" style="endArrow=classic;html=1;rounded=0;entryX=0.25;entryY=1;entryDx=0;entryDy=0;jumpStyle=arc;jumpSize=17;" parent="1" edge="1">
          <mxGeometry width="50" height="50" relative="1" as="geometry">
            <mxPoint x="959.37" y="1140" as="sourcePoint" />
            <mxPoint x="869.37" y="1398" as="targetPoint" />
            <Array as="points">
              <mxPoint x="959.37" y="1170" />
              <mxPoint x="959.37" y="1220" />
              <mxPoint x="959.37" y="1300" />
              <mxPoint x="869.37" y="1300" />
            </Array>
          </mxGeometry>
        </mxCell>
        <mxCell id="ngwG8sHYqxbEtw7EwDFG-31" value="" style="endArrow=classic;html=1;rounded=0;exitX=1;exitY=0.5;exitDx=0;exitDy=0;entryX=0.5;entryY=1;entryDx=0;entryDy=0;jumpStyle=arc;jumpSize=17;" parent="1" source="qN9n4UM56Keu8omTE9ro-1" target="HIkKj7lQl-brb_pWAjZc-2" edge="1">
          <mxGeometry width="50" height="50" relative="1" as="geometry">
            <mxPoint x="1089.37" y="1380" as="sourcePoint" />
            <mxPoint x="989.37" y="1270" as="targetPoint" />
            <Array as="points" />
          </mxGeometry>
        </mxCell>
        <mxCell id="ngwG8sHYqxbEtw7EwDFG-33" value="" style="endArrow=classic;html=1;rounded=0;entryX=0;entryY=0.5;entryDx=0;entryDy=0;" parent="1" target="ngwG8sHYqxbEtw7EwDFG-26" edge="1">
          <mxGeometry width="50" height="50" relative="1" as="geometry">
            <mxPoint x="1089.37" y="1245" as="sourcePoint" />
            <mxPoint x="1099.37" y="1220" as="targetPoint" />
          </mxGeometry>
        </mxCell>
        <mxCell id="ngwG8sHYqxbEtw7EwDFG-34" value="latch_dr" style="text;html=1;align=center;verticalAlign=middle;whiteSpace=wrap;rounded=0;" parent="1" vertex="1">
          <mxGeometry x="1089.37" y="1220" width="60" height="30" as="geometry" />
        </mxCell>
        <mxCell id="HIkKj7lQl-brb_pWAjZc-2" value="" style="shape=trapezoid;perimeter=trapezoidPerimeter;whiteSpace=wrap;html=1;fixedSize=1;rotation=90;rounded=0;shadow=0;" parent="1" vertex="1">
          <mxGeometry x="964.37" y="1250" width="120" height="32" as="geometry" />
        </mxCell>
        <mxCell id="HIkKj7lQl-brb_pWAjZc-3" value="MUX" style="text;html=1;align=center;verticalAlign=middle;whiteSpace=wrap;rounded=0;" parent="1" vertex="1">
          <mxGeometry x="994.37" y="1250" width="60" height="30" as="geometry" />
        </mxCell>
        <mxCell id="HIkKj7lQl-brb_pWAjZc-5" value="" style="endArrow=classic;html=1;rounded=0;exitX=0.5;exitY=0;exitDx=0;exitDy=0;entryX=0.25;entryY=0;entryDx=0;entryDy=0;" parent="1" source="HIkKj7lQl-brb_pWAjZc-2" target="qN9n4UM56Keu8omTE9ro-19" edge="1">
          <mxGeometry width="50" height="50" relative="1" as="geometry">
            <mxPoint x="1049.37" y="1330" as="sourcePoint" />
            <mxPoint x="1099.37" y="1280" as="targetPoint" />
            <Array as="points">
              <mxPoint x="1149.37" y="1266" />
            </Array>
          </mxGeometry>
        </mxCell>
        <mxCell id="HIkKj7lQl-brb_pWAjZc-6" value="" style="endArrow=classic;html=1;rounded=0;entryX=1;entryY=0.5;entryDx=0;entryDy=0;" parent="1" target="HIkKj7lQl-brb_pWAjZc-2" edge="1">
          <mxGeometry width="50" height="50" relative="1" as="geometry">
            <mxPoint x="1024.37" y="1380" as="sourcePoint" />
            <mxPoint x="1044.37" y="1367" as="targetPoint" />
          </mxGeometry>
        </mxCell>
        <mxCell id="HIkKj7lQl-brb_pWAjZc-7" value="sig_reg_write" style="text;html=1;align=center;verticalAlign=middle;whiteSpace=wrap;rounded=0;" parent="1" vertex="1">
          <mxGeometry x="939.37" y="1330" width="80" height="30" as="geometry" />
        </mxCell>
        <mxCell id="HIkKj7lQl-brb_pWAjZc-8" value="" style="endArrow=classic;html=1;rounded=0;entryX=0.25;entryY=1;entryDx=0;entryDy=0;" parent="1" target="HIkKj7lQl-brb_pWAjZc-2" edge="1">
          <mxGeometry width="50" height="50" relative="1" as="geometry">
            <mxPoint x="959.37" y="1236" as="sourcePoint" />
            <mxPoint x="1059.37" y="1290" as="targetPoint" />
          </mxGeometry>
        </mxCell>
        <mxCell id="HIkKj7lQl-brb_pWAjZc-13" value="IOController" style="rounded=0;whiteSpace=wrap;html=1;" parent="1" vertex="1">
          <mxGeometry x="534.37" y="1050" width="120" height="60" as="geometry" />
        </mxCell>
        <mxCell id="HIkKj7lQl-brb_pWAjZc-14" value="" style="endArrow=classic;html=1;rounded=0;exitX=1;exitY=0.5;exitDx=0;exitDy=0;entryX=0.5;entryY=1;entryDx=0;entryDy=0;" parent="1" source="HIkKj7lQl-brb_pWAjZc-13" target="bIrbUYFAm6PakOb2XTO1-1" edge="1">
          <mxGeometry width="50" height="50" relative="1" as="geometry">
            <mxPoint x="689.37" y="1110" as="sourcePoint" />
            <mxPoint x="739.37" y="1060" as="targetPoint" />
            <Array as="points">
              <mxPoint x="774.37" y="1080" />
            </Array>
          </mxGeometry>
        </mxCell>
        <mxCell id="HIkKj7lQl-brb_pWAjZc-15" value="" style="endArrow=classic;html=1;rounded=0;exitX=0;exitY=0.5;exitDx=0;exitDy=0;entryX=0.25;entryY=1;entryDx=0;entryDy=0;" parent="1" source="qN9n4UM56Keu8omTE9ro-1" target="HIkKj7lQl-brb_pWAjZc-13" edge="1">
          <mxGeometry width="50" height="50" relative="1" as="geometry">
            <mxPoint x="449.37" y="1192" as="sourcePoint" />
            <mxPoint x="499.37" y="1142" as="targetPoint" />
            <Array as="points">
              <mxPoint x="564.37" y="1265" />
            </Array>
          </mxGeometry>
        </mxCell>
        <mxCell id="HkCTBYgnvb_CsdK_xaza-107" value="general regs" style="rounded=0;whiteSpace=wrap;html=1;" parent="1" vertex="1">
          <mxGeometry x="363.75" y="413" width="91.25" height="30" as="geometry" />
        </mxCell>
        <mxCell id="HkCTBYgnvb_CsdK_xaza-130" value="" style="endArrow=none;html=1;rounded=0;" parent="1" edge="1">
          <mxGeometry width="50" height="50" relative="1" as="geometry">
            <mxPoint x="350" y="743" as="sourcePoint" />
            <mxPoint x="480" y="743" as="targetPoint" />
            <Array as="points">
              <mxPoint x="420" y="743" />
            </Array>
          </mxGeometry>
        </mxCell>
        <mxCell id="HkCTBYgnvb_CsdK_xaza-131" value="" style="endArrow=none;html=1;rounded=0;" parent="1" edge="1">
          <mxGeometry width="50" height="50" relative="1" as="geometry">
            <mxPoint x="480" y="743" as="sourcePoint" />
            <mxPoint x="525" y="681" as="targetPoint" />
          </mxGeometry>
        </mxCell>
        <mxCell id="HkCTBYgnvb_CsdK_xaza-132" value="" style="endArrow=none;html=1;rounded=0;" parent="1" edge="1">
          <mxGeometry width="50" height="50" relative="1" as="geometry">
            <mxPoint x="350" y="743" as="sourcePoint" />
            <mxPoint x="305" y="681" as="targetPoint" />
          </mxGeometry>
        </mxCell>
        <mxCell id="HkCTBYgnvb_CsdK_xaza-133" value="" style="endArrow=none;html=1;rounded=0;" parent="1" edge="1">
          <mxGeometry width="50" height="50" relative="1" as="geometry">
            <mxPoint x="305" y="681" as="sourcePoint" />
            <mxPoint x="375" y="681" as="targetPoint" />
          </mxGeometry>
        </mxCell>
        <mxCell id="HkCTBYgnvb_CsdK_xaza-134" value="" style="endArrow=none;html=1;rounded=0;" parent="1" edge="1">
          <mxGeometry width="50" height="50" relative="1" as="geometry">
            <mxPoint x="375" y="681" as="sourcePoint" />
            <mxPoint x="415" y="711" as="targetPoint" />
          </mxGeometry>
        </mxCell>
        <mxCell id="HkCTBYgnvb_CsdK_xaza-135" value="" style="endArrow=none;html=1;rounded=0;" parent="1" edge="1">
          <mxGeometry width="50" height="50" relative="1" as="geometry">
            <mxPoint x="415" y="711" as="sourcePoint" />
            <mxPoint x="455" y="681" as="targetPoint" />
          </mxGeometry>
        </mxCell>
        <mxCell id="HkCTBYgnvb_CsdK_xaza-136" value="" style="endArrow=classic;html=1;rounded=0;exitX=0.5;exitY=0;exitDx=0;exitDy=0;" parent="1" source="HkCTBYgnvb_CsdK_xaza-144" edge="1">
          <mxGeometry width="50" height="50" relative="1" as="geometry">
            <mxPoint x="330" y="649.0000000000001" as="sourcePoint" />
            <mxPoint x="330" y="681" as="targetPoint" />
            <Array as="points">
              <mxPoint x="330" y="671" />
            </Array>
          </mxGeometry>
        </mxCell>
        <mxCell id="HkCTBYgnvb_CsdK_xaza-137" value="" style="endArrow=none;html=1;rounded=0;" parent="1" edge="1">
          <mxGeometry width="50" height="50" relative="1" as="geometry">
            <mxPoint x="455" y="681" as="sourcePoint" />
            <mxPoint x="525" y="681" as="targetPoint" />
          </mxGeometry>
        </mxCell>
        <mxCell id="HkCTBYgnvb_CsdK_xaza-138" value="" style="endArrow=classic;html=1;rounded=0;exitX=0.45;exitY=0.007;exitDx=0;exitDy=0;exitPerimeter=0;" parent="1" source="HkCTBYgnvb_CsdK_xaza-146" edge="1">
          <mxGeometry width="50" height="50" relative="1" as="geometry">
            <mxPoint x="475" y="661" as="sourcePoint" />
            <mxPoint x="491" y="681" as="targetPoint" />
          </mxGeometry>
        </mxCell>
        <mxCell id="HkCTBYgnvb_CsdK_xaza-139" value="ALU" style="text;html=1;align=center;verticalAlign=middle;resizable=0;points=[];autosize=1;strokeColor=none;fillColor=none;" parent="1" vertex="1">
          <mxGeometry x="390" y="710" width="50" height="30" as="geometry" />
        </mxCell>
        <mxCell id="HkCTBYgnvb_CsdK_xaza-140" value="" style="endArrow=classic;html=1;rounded=0;" parent="1" edge="1">
          <mxGeometry width="50" height="50" relative="1" as="geometry">
            <mxPoint x="330" y="715" as="sourcePoint" />
            <mxPoint x="270" y="715" as="targetPoint" />
          </mxGeometry>
        </mxCell>
        <mxCell id="HkCTBYgnvb_CsdK_xaza-141" value="&lt;font style=&quot;font-size: 9px;&quot;&gt;flags&lt;/font&gt;" style="text;html=1;align=center;verticalAlign=middle;resizable=0;points=[];autosize=1;strokeColor=none;fillColor=none;" parent="1" vertex="1">
          <mxGeometry x="285" y="710" width="40" height="30" as="geometry" />
        </mxCell>
        <mxCell id="HkCTBYgnvb_CsdK_xaza-142" value="" style="endArrow=classic;html=1;rounded=0;" parent="1" edge="1">
          <mxGeometry width="50" height="50" relative="1" as="geometry">
            <mxPoint x="560" y="715" as="sourcePoint" />
            <mxPoint x="500" y="715" as="targetPoint" />
          </mxGeometry>
        </mxCell>
        <mxCell id="HkCTBYgnvb_CsdK_xaza-143" value="&lt;font style=&quot;font-size: 9px;&quot;&gt;operation&lt;/font&gt;" style="text;html=1;align=center;verticalAlign=middle;resizable=0;points=[];autosize=1;strokeColor=none;fillColor=none;" parent="1" vertex="1">
          <mxGeometry x="500" y="710" width="60" height="30" as="geometry" />
        </mxCell>
        <mxCell id="HkCTBYgnvb_CsdK_xaza-144" value="" style="shape=trapezoid;perimeter=trapezoidPerimeter;whiteSpace=wrap;html=1;fixedSize=1;rotation=-180;rounded=0;shadow=0;" parent="1" vertex="1">
          <mxGeometry x="260" y="619" width="140" height="32" as="geometry" />
        </mxCell>
        <mxCell id="HkCTBYgnvb_CsdK_xaza-145" value="MUX" style="text;html=1;align=center;verticalAlign=middle;whiteSpace=wrap;rounded=0;" parent="1" vertex="1">
          <mxGeometry x="298.75" y="619" width="60" height="30" as="geometry" />
        </mxCell>
        <mxCell id="HkCTBYgnvb_CsdK_xaza-146" value="" style="shape=trapezoid;perimeter=trapezoidPerimeter;whiteSpace=wrap;html=1;fixedSize=1;rotation=-180;rounded=0;shadow=0;" parent="1" vertex="1">
          <mxGeometry x="425" y="619" width="120" height="32" as="geometry" />
        </mxCell>
        <mxCell id="HkCTBYgnvb_CsdK_xaza-147" value="MUX" style="text;html=1;align=center;verticalAlign=middle;whiteSpace=wrap;rounded=0;" parent="1" vertex="1">
          <mxGeometry x="455" y="619" width="60" height="30" as="geometry" />
        </mxCell>
        <mxCell id="HkCTBYgnvb_CsdK_xaza-148" value="" style="endArrow=classic;html=1;rounded=0;entryX=1;entryY=0.5;entryDx=0;entryDy=0;" parent="1" target="HkCTBYgnvb_CsdK_xaza-144" edge="1">
          <mxGeometry width="50" height="50" relative="1" as="geometry">
            <mxPoint x="190" y="635" as="sourcePoint" />
            <mxPoint x="260" y="639" as="targetPoint" />
          </mxGeometry>
        </mxCell>
        <mxCell id="HkCTBYgnvb_CsdK_xaza-246" value="&lt;span style=&quot;text-wrap: wrap; background-color: rgb(251, 251, 251);&quot;&gt;&lt;font style=&quot;font-size: 9px;&quot;&gt;sigAluL&lt;/font&gt;&lt;/span&gt;" style="edgeLabel;html=1;align=center;verticalAlign=middle;resizable=0;points=[];" parent="HkCTBYgnvb_CsdK_xaza-148" vertex="1" connectable="0">
          <mxGeometry x="-0.1947" relative="1" as="geometry">
            <mxPoint as="offset" />
          </mxGeometry>
        </mxCell>
        <mxCell id="HkCTBYgnvb_CsdK_xaza-150" value="" style="endArrow=classic;html=1;rounded=0;entryX=0;entryY=0.5;entryDx=0;entryDy=0;" parent="1" target="HkCTBYgnvb_CsdK_xaza-146" edge="1">
          <mxGeometry width="50" height="50" relative="1" as="geometry">
            <mxPoint x="605" y="635" as="sourcePoint" />
            <mxPoint x="605" y="641" as="targetPoint" />
          </mxGeometry>
        </mxCell>
        <mxCell id="HkCTBYgnvb_CsdK_xaza-151" value="&lt;font style=&quot;font-size: 9px;&quot;&gt;sigAluR&lt;/font&gt;" style="text;html=1;align=center;verticalAlign=middle;whiteSpace=wrap;rounded=0;" parent="1" vertex="1">
          <mxGeometry x="540" y="603" width="60" height="30" as="geometry" />
        </mxCell>
        <mxCell id="HkCTBYgnvb_CsdK_xaza-152" value="Memory" style="rounded=0;whiteSpace=wrap;html=1;" parent="1" vertex="1">
          <mxGeometry x="1340" y="320" width="120" height="130" as="geometry" />
        </mxCell>
        <mxCell id="HkCTBYgnvb_CsdK_xaza-153" value="" style="endArrow=classic;html=1;rounded=0;" parent="1" edge="1">
          <mxGeometry width="50" height="50" relative="1" as="geometry">
            <mxPoint x="1280" y="412" as="sourcePoint" />
            <mxPoint x="1340" y="412" as="targetPoint" />
          </mxGeometry>
        </mxCell>
        <mxCell id="HkCTBYgnvb_CsdK_xaza-154" value="&lt;font style=&quot;font-size: 9px;&quot;&gt;write&lt;/font&gt;" style="text;html=1;align=center;verticalAlign=middle;resizable=0;points=[];autosize=1;strokeColor=none;fillColor=none;" parent="1" vertex="1">
          <mxGeometry x="1285" y="410" width="40" height="30" as="geometry" />
        </mxCell>
        <mxCell id="HkCTBYgnvb_CsdK_xaza-155" value="" style="endArrow=classic;html=1;rounded=0;" parent="1" edge="1">
          <mxGeometry width="50" height="50" relative="1" as="geometry">
            <mxPoint x="1280" y="382" as="sourcePoint" />
            <mxPoint x="1340" y="382" as="targetPoint" />
          </mxGeometry>
        </mxCell>
        <mxCell id="HkCTBYgnvb_CsdK_xaza-156" value="&lt;font style=&quot;font-size: 9px;&quot;&gt;read&lt;/font&gt;" style="text;html=1;align=center;verticalAlign=middle;resizable=0;points=[];autosize=1;strokeColor=none;fillColor=none;" parent="1" vertex="1">
          <mxGeometry x="1285" y="380" width="40" height="30" as="geometry" />
        </mxCell>
        <mxCell id="HkCTBYgnvb_CsdK_xaza-157" value="MUX" style="shape=trapezoid;perimeter=trapezoidPerimeter;whiteSpace=wrap;html=1;fixedSize=1;" parent="1" vertex="1">
          <mxGeometry x="1360" y="548" width="80" height="22" as="geometry" />
        </mxCell>
        <mxCell id="HkCTBYgnvb_CsdK_xaza-158" value="" style="endArrow=classic;html=1;rounded=0;exitX=0.5;exitY=0;exitDx=0;exitDy=0;entryX=0.5;entryY=1;entryDx=0;entryDy=0;" parent="1" source="HkCTBYgnvb_CsdK_xaza-160" target="HkCTBYgnvb_CsdK_xaza-163" edge="1">
          <mxGeometry width="50" height="50" relative="1" as="geometry">
            <mxPoint x="1325" y="580" as="sourcePoint" />
            <mxPoint x="1400" y="410" as="targetPoint" />
          </mxGeometry>
        </mxCell>
        <mxCell id="HkCTBYgnvb_CsdK_xaza-159" value="" style="endArrow=classic;html=1;rounded=0;exitX=0.5;exitY=0;exitDx=0;exitDy=0;entryX=0.5;entryY=1;entryDx=0;entryDy=0;" parent="1" source="HkCTBYgnvb_CsdK_xaza-157" target="HkCTBYgnvb_CsdK_xaza-160" edge="1">
          <mxGeometry width="50" height="50" relative="1" as="geometry">
            <mxPoint x="1400" y="526" as="sourcePoint" />
            <mxPoint x="1400" y="490" as="targetPoint" />
          </mxGeometry>
        </mxCell>
        <mxCell id="HkCTBYgnvb_CsdK_xaza-160" value="address reg" style="rounded=0;whiteSpace=wrap;html=1;" parent="1" vertex="1">
          <mxGeometry x="1340" y="510" width="120" height="20" as="geometry" />
        </mxCell>
        <mxCell id="HkCTBYgnvb_CsdK_xaza-163" value="Stack" style="rounded=0;whiteSpace=wrap;html=1;" parent="1" vertex="1">
          <mxGeometry x="1340" y="450" width="120" height="20" as="geometry" />
        </mxCell>
        <mxCell id="HkCTBYgnvb_CsdK_xaza-164" value="" style="endArrow=classic;html=1;rounded=0;exitX=0.666;exitY=0.003;exitDx=0;exitDy=0;entryX=0.5;entryY=1;entryDx=0;entryDy=0;exitPerimeter=0;" parent="1" target="HkCTBYgnvb_CsdK_xaza-165" edge="1">
          <mxGeometry width="50" height="50" relative="1" as="geometry">
            <mxPoint x="1439.92" y="319.9999999999999" as="sourcePoint" />
            <mxPoint x="1351.68" y="159.71799999999996" as="targetPoint" />
            <Array as="points" />
          </mxGeometry>
        </mxCell>
        <mxCell id="HkCTBYgnvb_CsdK_xaza-165" value="Data reg" style="rounded=0;whiteSpace=wrap;html=1;" parent="1" vertex="1">
          <mxGeometry x="1400" y="250.61" width="80" height="28" as="geometry" />
        </mxCell>
        <mxCell id="HkCTBYgnvb_CsdK_xaza-166" value="" style="endArrow=classic;html=1;rounded=0;entryX=1;entryY=0.5;entryDx=0;entryDy=0;" parent="1" target="HkCTBYgnvb_CsdK_xaza-165" edge="1">
          <mxGeometry width="50" height="50" relative="1" as="geometry">
            <mxPoint x="1540" y="265" as="sourcePoint" />
            <mxPoint x="1480" y="267.11" as="targetPoint" />
          </mxGeometry>
        </mxCell>
        <mxCell id="HkCTBYgnvb_CsdK_xaza-179" value="&lt;span style=&quot;text-wrap: wrap; background-color: rgb(251, 251, 251);&quot;&gt;&lt;font style=&quot;font-size: 9px;&quot;&gt;latch_dr&lt;/font&gt;&lt;/span&gt;" style="edgeLabel;html=1;align=center;verticalAlign=middle;resizable=0;points=[];" parent="HkCTBYgnvb_CsdK_xaza-166" vertex="1" connectable="0">
          <mxGeometry x="-0.1133" y="1" relative="1" as="geometry">
            <mxPoint as="offset" />
          </mxGeometry>
        </mxCell>
        <mxCell id="HkCTBYgnvb_CsdK_xaza-168" value="" style="endArrow=classic;html=1;rounded=0;" parent="1" edge="1">
          <mxGeometry width="50" height="50" relative="1" as="geometry">
            <mxPoint x="1530" y="520" as="sourcePoint" />
            <mxPoint x="1460" y="519.76" as="targetPoint" />
          </mxGeometry>
        </mxCell>
        <mxCell id="HkCTBYgnvb_CsdK_xaza-169" value="&lt;span style=&quot;text-wrap: wrap; background-color: rgb(251, 251, 251);&quot;&gt;&lt;font style=&quot;font-size: 9px;&quot;&gt;latch_addr&lt;/font&gt;&lt;/span&gt;" style="edgeLabel;html=1;align=center;verticalAlign=middle;resizable=0;points=[];" parent="HkCTBYgnvb_CsdK_xaza-168" vertex="1" connectable="0">
          <mxGeometry x="0.1828" relative="1" as="geometry">
            <mxPoint x="12" as="offset" />
          </mxGeometry>
        </mxCell>
        <mxCell id="HkCTBYgnvb_CsdK_xaza-170" value="" style="endArrow=classic;html=1;rounded=0;entryX=1;entryY=0.5;entryDx=0;entryDy=0;" parent="1" target="HkCTBYgnvb_CsdK_xaza-157" edge="1">
          <mxGeometry width="50" height="50" relative="1" as="geometry">
            <mxPoint x="1500" y="560" as="sourcePoint" />
            <mxPoint x="1435" y="558.88" as="targetPoint" />
          </mxGeometry>
        </mxCell>
        <mxCell id="HkCTBYgnvb_CsdK_xaza-171" value="&lt;font style=&quot;font-size: 9px;&quot;&gt;sig_addr&lt;/font&gt;" style="edgeLabel;html=1;align=center;verticalAlign=middle;resizable=0;points=[];" parent="HkCTBYgnvb_CsdK_xaza-170" vertex="1" connectable="0">
          <mxGeometry x="0.1828" relative="1" as="geometry">
            <mxPoint x="12" as="offset" />
          </mxGeometry>
        </mxCell>
        <mxCell id="HkCTBYgnvb_CsdK_xaza-172" value="" style="endArrow=classic;html=1;rounded=0;entryX=0.25;entryY=0;entryDx=0;entryDy=0;" parent="1" target="HkCTBYgnvb_CsdK_xaza-152" edge="1">
          <mxGeometry width="50" height="50" relative="1" as="geometry">
            <mxPoint x="1210" y="303" as="sourcePoint" />
            <mxPoint x="1255" y="251" as="targetPoint" />
            <Array as="points">
              <mxPoint x="1370" y="303" />
            </Array>
          </mxGeometry>
        </mxCell>
        <mxCell id="HkCTBYgnvb_CsdK_xaza-173" value="&lt;font style=&quot;font-size: 9px;&quot;&gt;regs_data&lt;/font&gt;" style="edgeLabel;html=1;align=center;verticalAlign=middle;resizable=0;points=[];" parent="HkCTBYgnvb_CsdK_xaza-172" vertex="1" connectable="0">
          <mxGeometry x="-0.4656" y="-2" relative="1" as="geometry">
            <mxPoint x="37" y="-2" as="offset" />
          </mxGeometry>
        </mxCell>
        <mxCell id="HkCTBYgnvb_CsdK_xaza-180" value="&lt;font style=&quot;font-size: 24px;&quot;&gt;Middleware&lt;/font&gt;" style="text;html=1;align=center;verticalAlign=middle;whiteSpace=wrap;rounded=0;" parent="1" vertex="1">
          <mxGeometry x="1300" y="90" width="160" height="50" as="geometry" />
        </mxCell>
        <mxCell id="HkCTBYgnvb_CsdK_xaza-181" value="Instruction decoder" style="rounded=0;whiteSpace=wrap;html=1;" parent="1" vertex="1">
          <mxGeometry x="1830" y="286" width="120" height="60" as="geometry" />
        </mxCell>
        <mxCell id="HkCTBYgnvb_CsdK_xaza-182" value="" style="endArrow=classic;html=1;rounded=0;exitX=0.5;exitY=0;exitDx=0;exitDy=0;entryX=0.5;entryY=0;entryDx=0;entryDy=0;" parent="1" source="HkCTBYgnvb_CsdK_xaza-165" target="HkCTBYgnvb_CsdK_xaza-310" edge="1">
          <mxGeometry width="50" height="50" relative="1" as="geometry">
            <mxPoint x="1490" y="190" as="sourcePoint" />
            <mxPoint x="1440" y="180" as="targetPoint" />
            <Array as="points">
              <mxPoint x="1440" y="220" />
              <mxPoint x="1210" y="220" />
            </Array>
          </mxGeometry>
        </mxCell>
        <mxCell id="HkCTBYgnvb_CsdK_xaza-183" value="data" style="edgeLabel;html=1;align=center;verticalAlign=middle;resizable=0;points=[];" parent="HkCTBYgnvb_CsdK_xaza-182" vertex="1" connectable="0">
          <mxGeometry x="0.0141" relative="1" as="geometry">
            <mxPoint x="111" y="16" as="offset" />
          </mxGeometry>
        </mxCell>
        <mxCell id="HkCTBYgnvb_CsdK_xaza-184" value="" style="endArrow=classic;html=1;rounded=0;entryX=0.5;entryY=0;entryDx=0;entryDy=0;exitX=0.5;exitY=0;exitDx=0;exitDy=0;" parent="1" source="BlZXFPjgalTiJrbHkwTR-2" target="HkCTBYgnvb_CsdK_xaza-181" edge="1">
          <mxGeometry width="50" height="50" relative="1" as="geometry">
            <mxPoint x="1890" y="226" as="sourcePoint" />
            <mxPoint x="1860" y="166" as="targetPoint" />
            <Array as="points">
              <mxPoint x="1700" y="253" />
              <mxPoint x="1890" y="253" />
            </Array>
          </mxGeometry>
        </mxCell>
        <mxCell id="HkCTBYgnvb_CsdK_xaza-185" value="instr" style="edgeLabel;html=1;align=center;verticalAlign=middle;resizable=0;points=[];" parent="HkCTBYgnvb_CsdK_xaza-184" vertex="1" connectable="0">
          <mxGeometry x="-0.1467" y="-1" relative="1" as="geometry">
            <mxPoint x="53" as="offset" />
          </mxGeometry>
        </mxCell>
        <mxCell id="HkCTBYgnvb_CsdK_xaza-187" value="instruction pointer" style="rounded=0;whiteSpace=wrap;html=1;" parent="1" vertex="1">
          <mxGeometry x="1855" y="546" width="120" height="60" as="geometry" />
        </mxCell>
        <mxCell id="HkCTBYgnvb_CsdK_xaza-188" value="" style="shape=trapezoid;perimeter=trapezoidPerimeter;whiteSpace=wrap;html=1;fixedSize=1;rotation=-180;" parent="1" vertex="1">
          <mxGeometry x="1840" y="488" width="150" height="30" as="geometry" />
        </mxCell>
        <mxCell id="HkCTBYgnvb_CsdK_xaza-189" value="MUX" style="text;html=1;align=center;verticalAlign=middle;whiteSpace=wrap;rounded=0;" parent="1" vertex="1">
          <mxGeometry x="1885" y="488" width="60" height="30" as="geometry" />
        </mxCell>
        <mxCell id="HkCTBYgnvb_CsdK_xaza-190" value="" style="endArrow=classic;html=1;rounded=0;entryX=0.5;entryY=0;entryDx=0;entryDy=0;exitX=0.5;exitY=0;exitDx=0;exitDy=0;" parent="1" source="HkCTBYgnvb_CsdK_xaza-188" target="HkCTBYgnvb_CsdK_xaza-187" edge="1">
          <mxGeometry width="50" height="50" relative="1" as="geometry">
            <mxPoint x="1810" y="546" as="sourcePoint" />
            <mxPoint x="1860" y="496" as="targetPoint" />
          </mxGeometry>
        </mxCell>
        <mxCell id="HkCTBYgnvb_CsdK_xaza-191" value="" style="endArrow=classic;html=1;rounded=0;exitX=1;exitY=0.5;exitDx=0;exitDy=0;entryX=0.086;entryY=1.006;entryDx=0;entryDy=0;entryPerimeter=0;" parent="1" source="HkCTBYgnvb_CsdK_xaza-187" target="HkCTBYgnvb_CsdK_xaza-188" edge="1">
          <mxGeometry width="50" height="50" relative="1" as="geometry">
            <mxPoint x="1970" y="656" as="sourcePoint" />
            <mxPoint x="1977" y="486" as="targetPoint" />
            <Array as="points">
              <mxPoint x="2040" y="576" />
              <mxPoint x="2040" y="506" />
              <mxPoint x="2040" y="466" />
              <mxPoint x="1977" y="466" />
            </Array>
          </mxGeometry>
        </mxCell>
        <mxCell id="HkCTBYgnvb_CsdK_xaza-192" value="+1" style="edgeLabel;html=1;align=center;verticalAlign=middle;resizable=0;points=[];" parent="HkCTBYgnvb_CsdK_xaza-191" vertex="1" connectable="0">
          <mxGeometry x="-0.2624" relative="1" as="geometry">
            <mxPoint y="-20" as="offset" />
          </mxGeometry>
        </mxCell>
        <mxCell id="HkCTBYgnvb_CsdK_xaza-193" value="" style="endArrow=classic;html=1;rounded=0;exitX=0;exitY=0.25;exitDx=0;exitDy=0;entryX=0;entryY=0.5;entryDx=0;entryDy=0;" parent="1" source="HkCTBYgnvb_CsdK_xaza-181" target="HkCTBYgnvb_CsdK_xaza-187" edge="1">
          <mxGeometry width="50" height="50" relative="1" as="geometry">
            <mxPoint x="1830" y="339" as="sourcePoint" />
            <mxPoint x="1810" y="236" as="targetPoint" />
            <Array as="points">
              <mxPoint x="1780" y="301" />
              <mxPoint x="1780" y="576" />
            </Array>
          </mxGeometry>
        </mxCell>
        <mxCell id="HkCTBYgnvb_CsdK_xaza-194" value="latch_ip" style="edgeLabel;html=1;align=center;verticalAlign=middle;resizable=0;points=[];" parent="HkCTBYgnvb_CsdK_xaza-193" vertex="1" connectable="0">
          <mxGeometry x="-0.0623" relative="1" as="geometry">
            <mxPoint y="11" as="offset" />
          </mxGeometry>
        </mxCell>
        <mxCell id="HkCTBYgnvb_CsdK_xaza-195" value="" style="endArrow=classic;html=1;rounded=0;exitX=0;exitY=0.75;exitDx=0;exitDy=0;entryX=1;entryY=0.5;entryDx=0;entryDy=0;" parent="1" source="HkCTBYgnvb_CsdK_xaza-181" target="HkCTBYgnvb_CsdK_xaza-188" edge="1">
          <mxGeometry width="50" height="50" relative="1" as="geometry">
            <mxPoint x="1830" y="351" as="sourcePoint" />
            <mxPoint x="1820" y="366" as="targetPoint" />
            <Array as="points">
              <mxPoint x="1810" y="331" />
              <mxPoint x="1810" y="503" />
            </Array>
          </mxGeometry>
        </mxCell>
        <mxCell id="HkCTBYgnvb_CsdK_xaza-196" value="sig_ip" style="edgeLabel;html=1;align=center;verticalAlign=middle;resizable=0;points=[];" parent="HkCTBYgnvb_CsdK_xaza-195" vertex="1" connectable="0">
          <mxGeometry x="-0.1912" y="1" relative="1" as="geometry">
            <mxPoint as="offset" />
          </mxGeometry>
        </mxCell>
        <mxCell id="HkCTBYgnvb_CsdK_xaza-197" value="" style="endArrow=classic;html=1;rounded=0;exitX=0.5;exitY=1;exitDx=0;exitDy=0;entryX=0.768;entryY=0.998;entryDx=0;entryDy=0;entryPerimeter=0;" parent="1" source="HkCTBYgnvb_CsdK_xaza-204" target="HkCTBYgnvb_CsdK_xaza-188" edge="1">
          <mxGeometry width="50" height="50" relative="1" as="geometry">
            <mxPoint x="1850" y="436" as="sourcePoint" />
            <mxPoint x="1870" y="486" as="targetPoint" />
          </mxGeometry>
        </mxCell>
        <mxCell id="HkCTBYgnvb_CsdK_xaza-199" value="" style="endArrow=classic;html=1;rounded=0;exitX=0.5;exitY=1;exitDx=0;exitDy=0;entryX=0.233;entryY=1.007;entryDx=0;entryDy=0;entryPerimeter=0;" parent="1" source="HkCTBYgnvb_CsdK_xaza-202" target="HkCTBYgnvb_CsdK_xaza-188" edge="1">
          <mxGeometry width="50" height="50" relative="1" as="geometry">
            <mxPoint x="1900" y="436" as="sourcePoint" />
            <mxPoint x="1955" y="486" as="targetPoint" />
          </mxGeometry>
        </mxCell>
        <mxCell id="BlZXFPjgalTiJrbHkwTR-3" value="ALU" style="edgeLabel;html=1;align=center;verticalAlign=middle;resizable=0;points=[];" parent="HkCTBYgnvb_CsdK_xaza-199" vertex="1" connectable="0">
          <mxGeometry x="-0.1852" relative="1" as="geometry">
            <mxPoint as="offset" />
          </mxGeometry>
        </mxCell>
        <mxCell id="HkCTBYgnvb_CsdK_xaza-202" value="Datapath" style="rounded=0;whiteSpace=wrap;html=1;" parent="1" vertex="1">
          <mxGeometry x="1920" y="406" width="70" height="30" as="geometry" />
        </mxCell>
        <mxCell id="HkCTBYgnvb_CsdK_xaza-204" value="bit_mask" style="rounded=0;whiteSpace=wrap;html=1;" parent="1" vertex="1">
          <mxGeometry x="1850" y="436" width="50" height="30" as="geometry" />
        </mxCell>
        <mxCell id="HkCTBYgnvb_CsdK_xaza-205" value="" style="endArrow=classic;html=1;rounded=0;entryX=0.5;entryY=0;entryDx=0;entryDy=0;" parent="1" target="HkCTBYgnvb_CsdK_xaza-204" edge="1">
          <mxGeometry width="50" height="50" relative="1" as="geometry">
            <mxPoint x="1875" y="376" as="sourcePoint" />
            <mxPoint x="1874.76" y="423.5" as="targetPoint" />
          </mxGeometry>
        </mxCell>
        <mxCell id="HkCTBYgnvb_CsdK_xaza-206" value="instr" style="edgeLabel;html=1;align=center;verticalAlign=middle;resizable=0;points=[];" parent="HkCTBYgnvb_CsdK_xaza-205" vertex="1" connectable="0">
          <mxGeometry x="-0.1534" y="1" relative="1" as="geometry">
            <mxPoint x="-1" y="3" as="offset" />
          </mxGeometry>
        </mxCell>
        <mxCell id="HkCTBYgnvb_CsdK_xaza-207" value="&lt;font style=&quot;font-size: 24px;&quot;&gt;Control Unit&lt;/font&gt;" style="text;html=1;align=center;verticalAlign=middle;whiteSpace=wrap;rounded=0;" parent="1" vertex="1">
          <mxGeometry x="1810" y="163" width="160" height="50" as="geometry" />
        </mxCell>
        <mxCell id="HkCTBYgnvb_CsdK_xaza-209" value="" style="endArrow=none;html=1;rounded=0;entryX=0.5;entryY=1;entryDx=0;entryDy=0;" parent="1" target="HkCTBYgnvb_CsdK_xaza-107" edge="1">
          <mxGeometry width="50" height="50" relative="1" as="geometry">
            <mxPoint x="410" y="543" as="sourcePoint" />
            <mxPoint x="487.5" y="493" as="targetPoint" />
          </mxGeometry>
        </mxCell>
        <mxCell id="HkCTBYgnvb_CsdK_xaza-210" value="" style="endArrow=classic;html=1;rounded=0;entryX=0.75;entryY=1;entryDx=0;entryDy=0;" parent="1" target="HkCTBYgnvb_CsdK_xaza-146" edge="1">
          <mxGeometry width="50" height="50" relative="1" as="geometry">
            <mxPoint x="410" y="543" as="sourcePoint" />
            <mxPoint x="450" y="603" as="targetPoint" />
            <Array as="points">
              <mxPoint x="455" y="543" />
            </Array>
          </mxGeometry>
        </mxCell>
        <mxCell id="HkCTBYgnvb_CsdK_xaza-211" value="" style="endArrow=classic;html=1;rounded=0;entryX=0.216;entryY=1.011;entryDx=0;entryDy=0;entryPerimeter=0;" parent="1" target="HkCTBYgnvb_CsdK_xaza-144" edge="1">
          <mxGeometry width="50" height="50" relative="1" as="geometry">
            <mxPoint x="410" y="543" as="sourcePoint" />
            <mxPoint x="370" y="613" as="targetPoint" />
            <Array as="points">
              <mxPoint x="370" y="543" />
            </Array>
          </mxGeometry>
        </mxCell>
        <mxCell id="HkCTBYgnvb_CsdK_xaza-214" value="" style="shape=trapezoid;perimeter=trapezoidPerimeter;whiteSpace=wrap;html=1;fixedSize=1;rotation=-180;rounded=0;shadow=0;" parent="1" vertex="1">
          <mxGeometry x="320" y="353" width="177.5" height="32" as="geometry" />
        </mxCell>
        <mxCell id="HkCTBYgnvb_CsdK_xaza-215" value="MUX" style="text;html=1;align=center;verticalAlign=middle;whiteSpace=wrap;rounded=0;" parent="1" vertex="1">
          <mxGeometry x="378.75" y="353" width="60" height="30" as="geometry" />
        </mxCell>
        <mxCell id="HkCTBYgnvb_CsdK_xaza-216" value="" style="shape=trapezoid;perimeter=trapezoidPerimeter;whiteSpace=wrap;html=1;fixedSize=1;rotation=-180;rounded=0;shadow=0;" parent="1" vertex="1">
          <mxGeometry x="480" y="263" width="120" height="32" as="geometry" />
        </mxCell>
        <mxCell id="HkCTBYgnvb_CsdK_xaza-217" value="MUX" style="text;html=1;align=center;verticalAlign=middle;whiteSpace=wrap;rounded=0;" parent="1" vertex="1">
          <mxGeometry x="510" y="264" width="60" height="30" as="geometry" />
        </mxCell>
        <mxCell id="HkCTBYgnvb_CsdK_xaza-218" value="" style="endArrow=classic;html=1;rounded=0;entryX=0.75;entryY=1;entryDx=0;entryDy=0;" parent="1" target="HkCTBYgnvb_CsdK_xaza-216" edge="1">
          <mxGeometry width="50" height="50" relative="1" as="geometry">
            <mxPoint x="570" y="160" as="sourcePoint" />
            <mxPoint x="550" y="113" as="targetPoint" />
            <Array as="points">
              <mxPoint x="510" y="160" />
            </Array>
          </mxGeometry>
        </mxCell>
        <mxCell id="HkCTBYgnvb_CsdK_xaza-220" value="" style="endArrow=classic;html=1;rounded=0;exitX=0.5;exitY=1;exitDx=0;exitDy=0;entryX=0.25;entryY=1;entryDx=0;entryDy=0;" parent="1" source="HkCTBYgnvb_CsdK_xaza-221" target="HkCTBYgnvb_CsdK_xaza-216" edge="1">
          <mxGeometry width="50" height="50" relative="1" as="geometry">
            <mxPoint x="580" y="203" as="sourcePoint" />
            <mxPoint x="605" y="255" as="targetPoint" />
          </mxGeometry>
        </mxCell>
        <mxCell id="HkCTBYgnvb_CsdK_xaza-221" value="bit_mask" style="rounded=0;whiteSpace=wrap;html=1;" parent="1" vertex="1">
          <mxGeometry x="545" y="183" width="50" height="30" as="geometry" />
        </mxCell>
        <mxCell id="HkCTBYgnvb_CsdK_xaza-222" value="" style="endArrow=classic;html=1;rounded=0;entryX=0.5;entryY=0;entryDx=0;entryDy=0;exitX=-0.003;exitY=0.03;exitDx=0;exitDy=0;exitPerimeter=0;" parent="1" source="Bl6Kn2tDG64BkgneYK8_-17" target="HkCTBYgnvb_CsdK_xaza-221" edge="1">
          <mxGeometry width="50" height="50" relative="1" as="geometry">
            <mxPoint x="930" y="170" as="sourcePoint" />
            <mxPoint x="584.76" y="170.5" as="targetPoint" />
            <Array as="points">
              <mxPoint x="570" y="160" />
            </Array>
          </mxGeometry>
        </mxCell>
        <mxCell id="BlZXFPjgalTiJrbHkwTR-4" value="instr" style="edgeLabel;html=1;align=center;verticalAlign=middle;resizable=0;points=[];" parent="HkCTBYgnvb_CsdK_xaza-222" vertex="1" connectable="0">
          <mxGeometry x="0.324" y="-1" relative="1" as="geometry">
            <mxPoint x="63" as="offset" />
          </mxGeometry>
        </mxCell>
        <mxCell id="HkCTBYgnvb_CsdK_xaza-224" value="" style="endArrow=classic;html=1;rounded=0;entryX=0.101;entryY=0.999;entryDx=0;entryDy=0;entryPerimeter=0;exitX=0.5;exitY=0;exitDx=0;exitDy=0;" parent="1" source="HkCTBYgnvb_CsdK_xaza-216" target="HkCTBYgnvb_CsdK_xaza-214" edge="1">
          <mxGeometry width="50" height="50" relative="1" as="geometry">
            <mxPoint x="524.38" y="244" as="sourcePoint" />
            <mxPoint x="524.38" y="293" as="targetPoint" />
            <Array as="points">
              <mxPoint x="540" y="323" />
              <mxPoint x="480" y="323" />
            </Array>
          </mxGeometry>
        </mxCell>
        <mxCell id="HkCTBYgnvb_CsdK_xaza-225" value="IOController" style="rounded=0;whiteSpace=wrap;html=1;" parent="1" vertex="1">
          <mxGeometry x="349.37" y="193" width="120" height="60" as="geometry" />
        </mxCell>
        <mxCell id="HkCTBYgnvb_CsdK_xaza-226" value="" style="endArrow=classic;html=1;rounded=0;exitX=0.5;exitY=1;exitDx=0;exitDy=0;entryX=0.5;entryY=1;entryDx=0;entryDy=0;" parent="1" source="HkCTBYgnvb_CsdK_xaza-225" target="HkCTBYgnvb_CsdK_xaza-214" edge="1">
          <mxGeometry width="50" height="50" relative="1" as="geometry">
            <mxPoint x="384.38" y="163" as="sourcePoint" />
            <mxPoint x="384.38" y="243" as="targetPoint" />
          </mxGeometry>
        </mxCell>
        <mxCell id="HkCTBYgnvb_CsdK_xaza-227" value="" style="endArrow=classic;html=1;rounded=0;entryX=0.75;entryY=1;entryDx=0;entryDy=0;" parent="1" target="HkCTBYgnvb_CsdK_xaza-214" edge="1">
          <mxGeometry width="50" height="50" relative="1" as="geometry">
            <mxPoint x="420" y="743" as="sourcePoint" />
            <mxPoint x="340" y="303" as="targetPoint" />
            <Array as="points">
              <mxPoint x="420" y="783" />
              <mxPoint x="120" y="783" />
              <mxPoint x="120" y="323" />
              <mxPoint x="364" y="323" />
            </Array>
          </mxGeometry>
        </mxCell>
        <mxCell id="HkCTBYgnvb_CsdK_xaza-228" value="stack reg" style="rounded=0;whiteSpace=wrap;html=1;" parent="1" vertex="1">
          <mxGeometry x="240" y="545" width="80" height="28" as="geometry" />
        </mxCell>
        <mxCell id="HkCTBYgnvb_CsdK_xaza-229" value="" style="endArrow=classic;html=1;rounded=0;exitX=0.5;exitY=1;exitDx=0;exitDy=0;entryX=0.75;entryY=1;entryDx=0;entryDy=0;" parent="1" source="HkCTBYgnvb_CsdK_xaza-228" edge="1">
          <mxGeometry width="50" height="50" relative="1" as="geometry">
            <mxPoint x="465" y="522" as="sourcePoint" />
            <mxPoint x="280" y="619" as="targetPoint" />
          </mxGeometry>
        </mxCell>
        <mxCell id="HkCTBYgnvb_CsdK_xaza-230" value="" style="endArrow=classic;html=1;rounded=0;entryX=0;entryY=0.5;entryDx=0;entryDy=0;" parent="1" target="HkCTBYgnvb_CsdK_xaza-228" edge="1">
          <mxGeometry width="50" height="50" relative="1" as="geometry">
            <mxPoint x="150" y="559" as="sourcePoint" />
            <mxPoint x="185.00000000000006" y="563" as="targetPoint" />
          </mxGeometry>
        </mxCell>
        <mxCell id="HkCTBYgnvb_CsdK_xaza-245" value="&lt;span style=&quot;background-color: rgb(251, 251, 251);&quot;&gt;&lt;font style=&quot;font-size: 9px;&quot;&gt;latch_stack_reg&lt;/font&gt;&lt;/span&gt;" style="edgeLabel;html=1;align=center;verticalAlign=middle;resizable=0;points=[];" parent="HkCTBYgnvb_CsdK_xaza-230" vertex="1" connectable="0">
          <mxGeometry x="-0.0092" relative="1" as="geometry">
            <mxPoint as="offset" />
          </mxGeometry>
        </mxCell>
        <mxCell id="HkCTBYgnvb_CsdK_xaza-232" value="" style="endArrow=classic;html=1;rounded=0;exitX=0.5;exitY=0;exitDx=0;exitDy=0;entryX=0.5;entryY=0;entryDx=0;entryDy=0;" parent="1" source="HkCTBYgnvb_CsdK_xaza-233" target="HkCTBYgnvb_CsdK_xaza-228" edge="1">
          <mxGeometry width="50" height="50" relative="1" as="geometry">
            <mxPoint x="145" y="516" as="sourcePoint" />
            <mxPoint x="275" y="543" as="targetPoint" />
          </mxGeometry>
        </mxCell>
        <mxCell id="HkCTBYgnvb_CsdK_xaza-233" value="" style="shape=trapezoid;perimeter=trapezoidPerimeter;whiteSpace=wrap;html=1;fixedSize=1;rotation=-180;rounded=0;shadow=0;" parent="1" vertex="1">
          <mxGeometry x="235" y="483" width="90" height="30" as="geometry" />
        </mxCell>
        <mxCell id="HkCTBYgnvb_CsdK_xaza-234" value="MUX" style="text;html=1;align=center;verticalAlign=middle;whiteSpace=wrap;rounded=0;" parent="1" vertex="1">
          <mxGeometry x="250" y="483" width="60" height="30" as="geometry" />
        </mxCell>
        <mxCell id="HkCTBYgnvb_CsdK_xaza-235" value="" style="endArrow=classic;html=1;rounded=0;entryX=0.724;entryY=1.003;entryDx=0;entryDy=0;entryPerimeter=0;" parent="1" target="HkCTBYgnvb_CsdK_xaza-233" edge="1">
          <mxGeometry width="50" height="50" relative="1" as="geometry">
            <mxPoint x="280" y="593" as="sourcePoint" />
            <mxPoint x="265" y="473" as="targetPoint" />
            <Array as="points">
              <mxPoint x="340" y="593" />
              <mxPoint x="340" y="443" />
              <mxPoint x="260" y="443" />
            </Array>
          </mxGeometry>
        </mxCell>
        <mxCell id="HkCTBYgnvb_CsdK_xaza-236" value="-1" style="edgeLabel;html=1;align=center;verticalAlign=middle;resizable=0;points=[];" parent="HkCTBYgnvb_CsdK_xaza-235" vertex="1" connectable="0">
          <mxGeometry x="0.8002" relative="1" as="geometry">
            <mxPoint y="12" as="offset" />
          </mxGeometry>
        </mxCell>
        <mxCell id="HkCTBYgnvb_CsdK_xaza-237" value="" style="endArrow=classic;html=1;rounded=0;entryX=0.278;entryY=1.011;entryDx=0;entryDy=0;entryPerimeter=0;" parent="1" target="HkCTBYgnvb_CsdK_xaza-233" edge="1">
          <mxGeometry width="50" height="50" relative="1" as="geometry">
            <mxPoint x="260" y="443" as="sourcePoint" />
            <mxPoint x="290" y="463" as="targetPoint" />
            <Array as="points">
              <mxPoint x="300" y="443" />
            </Array>
          </mxGeometry>
        </mxCell>
        <mxCell id="HkCTBYgnvb_CsdK_xaza-238" value="+1" style="edgeLabel;html=1;align=center;verticalAlign=middle;resizable=0;points=[];" parent="HkCTBYgnvb_CsdK_xaza-237" vertex="1" connectable="0">
          <mxGeometry x="0.4719" relative="1" as="geometry">
            <mxPoint as="offset" />
          </mxGeometry>
        </mxCell>
        <mxCell id="HkCTBYgnvb_CsdK_xaza-239" value="" style="endArrow=classic;html=1;rounded=0;" parent="1" edge="1">
          <mxGeometry width="50" height="50" relative="1" as="geometry">
            <mxPoint x="190" y="498" as="sourcePoint" />
            <mxPoint x="245" y="497.73" as="targetPoint" />
          </mxGeometry>
        </mxCell>
        <mxCell id="HkCTBYgnvb_CsdK_xaza-244" value="&lt;font style=&quot;font-size: 9px;&quot;&gt;sig_sp&lt;/font&gt;" style="edgeLabel;html=1;align=center;verticalAlign=middle;resizable=0;points=[];" parent="HkCTBYgnvb_CsdK_xaza-239" vertex="1" connectable="0">
          <mxGeometry x="-0.1003" y="-1" relative="1" as="geometry">
            <mxPoint x="-1" y="-1" as="offset" />
          </mxGeometry>
        </mxCell>
        <mxCell id="HkCTBYgnvb_CsdK_xaza-247" value="" style="endArrow=classic;html=1;rounded=0;entryX=0.25;entryY=1;entryDx=0;entryDy=0;" parent="1" target="HkCTBYgnvb_CsdK_xaza-248" edge="1">
          <mxGeometry width="50" height="50" relative="1" as="geometry">
            <mxPoint x="570" y="240" as="sourcePoint" />
            <mxPoint x="710" y="353" as="targetPoint" />
            <Array as="points">
              <mxPoint x="650" y="240" />
              <mxPoint x="650" y="464" />
            </Array>
          </mxGeometry>
        </mxCell>
        <mxCell id="HkCTBYgnvb_CsdK_xaza-248" value="" style="shape=trapezoid;perimeter=trapezoidPerimeter;whiteSpace=wrap;html=1;fixedSize=1;rotation=90;rounded=0;shadow=0;" parent="1" vertex="1">
          <mxGeometry x="630" y="478" width="120" height="32" as="geometry" />
        </mxCell>
        <mxCell id="HkCTBYgnvb_CsdK_xaza-249" value="MUX" style="text;html=1;align=center;verticalAlign=middle;whiteSpace=wrap;rounded=0;" parent="1" vertex="1">
          <mxGeometry x="660" y="478" width="60" height="30" as="geometry" />
        </mxCell>
        <mxCell id="HkCTBYgnvb_CsdK_xaza-250" value="" style="endArrow=classic;html=1;rounded=0;entryX=0.75;entryY=1;entryDx=0;entryDy=0;" parent="1" target="HkCTBYgnvb_CsdK_xaza-248" edge="1">
          <mxGeometry width="50" height="50" relative="1" as="geometry">
            <mxPoint x="410" y="523" as="sourcePoint" />
            <mxPoint x="620" y="433" as="targetPoint" />
            <Array as="points">
              <mxPoint x="620" y="523" />
            </Array>
          </mxGeometry>
        </mxCell>
        <mxCell id="HkCTBYgnvb_CsdK_xaza-251" value="" style="endArrow=classic;html=1;rounded=0;exitX=0.5;exitY=0;exitDx=0;exitDy=0;entryX=-0.007;entryY=0.536;entryDx=0;entryDy=0;entryPerimeter=0;" parent="1" source="HkCTBYgnvb_CsdK_xaza-248" target="Bl6Kn2tDG64BkgneYK8_-17" edge="1">
          <mxGeometry width="50" height="50" relative="1" as="geometry">
            <mxPoint x="645.63" y="621.39" as="sourcePoint" />
            <mxPoint x="794.3699999999999" y="493" as="targetPoint" />
          </mxGeometry>
        </mxCell>
        <mxCell id="HkCTBYgnvb_CsdK_xaza-305" value="to data_reg" style="edgeLabel;html=1;align=center;verticalAlign=middle;resizable=0;points=[];" parent="HkCTBYgnvb_CsdK_xaza-251" vertex="1" connectable="0">
          <mxGeometry x="-0.1638" relative="1" as="geometry">
            <mxPoint as="offset" />
          </mxGeometry>
        </mxCell>
        <mxCell id="HkCTBYgnvb_CsdK_xaza-253" value="" style="endArrow=classic;html=1;rounded=0;entryX=0.5;entryY=0;entryDx=0;entryDy=0;exitX=0.5;exitY=0;exitDx=0;exitDy=0;" parent="1" source="HkCTBYgnvb_CsdK_xaza-214" target="HkCTBYgnvb_CsdK_xaza-107" edge="1">
          <mxGeometry width="50" height="50" relative="1" as="geometry">
            <mxPoint x="410" y="363" as="sourcePoint" />
            <mxPoint x="480" y="413" as="targetPoint" />
          </mxGeometry>
        </mxCell>
        <mxCell id="HkCTBYgnvb_CsdK_xaza-254" value="" style="endArrow=classic;html=1;rounded=0;entryX=1;entryY=0.5;entryDx=0;entryDy=0;" parent="1" target="HkCTBYgnvb_CsdK_xaza-216" edge="1">
          <mxGeometry width="50" height="50" relative="1" as="geometry">
            <mxPoint x="425" y="279" as="sourcePoint" />
            <mxPoint x="288.75" y="253" as="targetPoint" />
          </mxGeometry>
        </mxCell>
        <mxCell id="HkCTBYgnvb_CsdK_xaza-257" value="&lt;span style=&quot;text-wrap: wrap; background-color: rgb(251, 251, 251);&quot;&gt;&lt;font style=&quot;font-size: 9px;&quot;&gt;sig_instr&lt;/font&gt;&lt;/span&gt;" style="edgeLabel;html=1;align=center;verticalAlign=middle;resizable=0;points=[];" parent="HkCTBYgnvb_CsdK_xaza-254" vertex="1" connectable="0">
          <mxGeometry x="-0.0368" relative="1" as="geometry">
            <mxPoint as="offset" />
          </mxGeometry>
        </mxCell>
        <mxCell id="HkCTBYgnvb_CsdK_xaza-258" value="" style="endArrow=classic;html=1;rounded=0;entryX=1;entryY=0.5;entryDx=0;entryDy=0;" parent="1" target="HkCTBYgnvb_CsdK_xaza-107" edge="1">
          <mxGeometry width="50" height="50" relative="1" as="geometry">
            <mxPoint x="570" y="428" as="sourcePoint" />
            <mxPoint x="455" y="367.78999999999996" as="targetPoint" />
          </mxGeometry>
        </mxCell>
        <mxCell id="HkCTBYgnvb_CsdK_xaza-260" value="&lt;span style=&quot;background-color: rgb(251, 251, 251);&quot;&gt;&lt;font style=&quot;font-size: 9px;&quot;&gt;latch_general_reg&lt;/font&gt;&lt;/span&gt;" style="edgeLabel;html=1;align=center;verticalAlign=middle;resizable=0;points=[];" parent="HkCTBYgnvb_CsdK_xaza-258" vertex="1" connectable="0">
          <mxGeometry x="0.0245" y="1" relative="1" as="geometry">
            <mxPoint as="offset" />
          </mxGeometry>
        </mxCell>
        <mxCell id="HkCTBYgnvb_CsdK_xaza-261" value="" style="endArrow=classic;html=1;rounded=0;entryX=0.942;entryY=0.474;entryDx=0;entryDy=0;entryPerimeter=0;" parent="1" edge="1">
          <mxGeometry width="50" height="50" relative="1" as="geometry">
            <mxPoint x="200" y="370" as="sourcePoint" />
            <mxPoint x="332" y="370" as="targetPoint" />
          </mxGeometry>
        </mxCell>
        <mxCell id="HkCTBYgnvb_CsdK_xaza-262" value="&lt;font style=&quot;font-size: 9px;&quot;&gt;sig_general_reg&lt;/font&gt;" style="text;html=1;align=center;verticalAlign=middle;resizable=0;points=[];autosize=1;strokeColor=none;fillColor=none;" parent="1" vertex="1">
          <mxGeometry x="215" y="343" width="90" height="30" as="geometry" />
        </mxCell>
        <mxCell id="HkCTBYgnvb_CsdK_xaza-265" value="" style="endArrow=classic;html=1;rounded=0;entryX=0;entryY=0.5;entryDx=0;entryDy=0;" parent="1" target="HkCTBYgnvb_CsdK_xaza-248" edge="1">
          <mxGeometry width="50" height="50" relative="1" as="geometry">
            <mxPoint x="689.63" y="400" as="sourcePoint" />
            <mxPoint x="717.42" y="585.71" as="targetPoint" />
          </mxGeometry>
        </mxCell>
        <mxCell id="HkCTBYgnvb_CsdK_xaza-267" value="&lt;span style=&quot;text-wrap: wrap; background-color: rgb(251, 251, 251);&quot;&gt;&lt;font style=&quot;font-size: 9px;&quot;&gt;sig_reg_write&lt;/font&gt;&lt;/span&gt;" style="edgeLabel;html=1;align=center;verticalAlign=middle;resizable=0;points=[];" parent="HkCTBYgnvb_CsdK_xaza-265" vertex="1" connectable="0">
          <mxGeometry x="-0.0106" relative="1" as="geometry">
            <mxPoint as="offset" />
          </mxGeometry>
        </mxCell>
        <mxCell id="HkCTBYgnvb_CsdK_xaza-268" value="" style="endArrow=classic;html=1;rounded=0;entryX=0.511;entryY=0;entryDx=0;entryDy=0;entryPerimeter=0;" parent="1" target="HkCTBYgnvb_CsdK_xaza-269" edge="1">
          <mxGeometry width="50" height="50" relative="1" as="geometry">
            <mxPoint x="420" y="783" as="sourcePoint" />
            <mxPoint x="420" y="810" as="targetPoint" />
          </mxGeometry>
        </mxCell>
        <mxCell id="HkCTBYgnvb_CsdK_xaza-269" value="Control Unit" style="rounded=0;whiteSpace=wrap;html=1;fillColor=none;dashed=1;" parent="1" vertex="1">
          <mxGeometry x="363.75" y="812" width="110" height="30" as="geometry" />
        </mxCell>
        <mxCell id="HkCTBYgnvb_CsdK_xaza-282" value="&lt;font style=&quot;font-size: 24px;&quot;&gt;Datapath&lt;/font&gt;" style="text;html=1;align=center;verticalAlign=middle;whiteSpace=wrap;rounded=0;" parent="1" vertex="1">
          <mxGeometry x="329.38" y="30" width="160" height="50" as="geometry" />
        </mxCell>
        <mxCell id="HkCTBYgnvb_CsdK_xaza-288" value="" style="endArrow=classic;html=1;rounded=0;" parent="1" edge="1">
          <mxGeometry width="50" height="50" relative="1" as="geometry">
            <mxPoint x="130" y="220" as="sourcePoint" />
            <mxPoint x="300" y="220" as="targetPoint" />
          </mxGeometry>
        </mxCell>
        <mxCell id="HkCTBYgnvb_CsdK_xaza-289" value="&lt;b style=&quot;&quot;&gt;&lt;font style=&quot;font-size: 15px;&quot;&gt;from general_regs&lt;/font&gt;&lt;/b&gt;" style="edgeLabel;html=1;align=center;verticalAlign=middle;resizable=0;points=[];" parent="HkCTBYgnvb_CsdK_xaza-288" vertex="1" connectable="0">
          <mxGeometry x="0.0098" relative="1" as="geometry">
            <mxPoint as="offset" />
          </mxGeometry>
        </mxCell>
        <mxCell id="HkCTBYgnvb_CsdK_xaza-292" value="" style="endArrow=classic;html=1;rounded=0;startArrow=none;startFill=0;endFill=1;" parent="1" edge="1">
          <mxGeometry width="50" height="50" relative="1" as="geometry">
            <mxPoint x="410" y="483" as="sourcePoint" />
            <mxPoint x="540" y="483" as="targetPoint" />
          </mxGeometry>
        </mxCell>
        <mxCell id="HkCTBYgnvb_CsdK_xaza-293" value="&lt;b&gt;&lt;font style=&quot;font-size: 15px;&quot;&gt;to IOController&lt;/font&gt;&lt;/b&gt;" style="edgeLabel;html=1;align=center;verticalAlign=middle;resizable=0;points=[];" parent="HkCTBYgnvb_CsdK_xaza-292" vertex="1" connectable="0">
          <mxGeometry x="-0.1629" relative="1" as="geometry">
            <mxPoint x="6" as="offset" />
          </mxGeometry>
        </mxCell>
        <mxCell id="HkCTBYgnvb_CsdK_xaza-295" value="" style="endArrow=none;dashed=1;html=1;strokeWidth=1;rounded=0;strokeColor=#B5B5B5;" parent="1" edge="1">
          <mxGeometry width="50" height="50" relative="1" as="geometry">
            <mxPoint x="540" y="483" as="sourcePoint" />
            <mxPoint x="130" y="220" as="targetPoint" />
            <Array as="points">
              <mxPoint x="580" y="483" />
              <mxPoint x="580" y="310" />
              <mxPoint x="130" y="310" />
            </Array>
          </mxGeometry>
        </mxCell>
        <mxCell id="HkCTBYgnvb_CsdK_xaza-298" value="" style="endArrow=classic;html=1;rounded=0;entryX=-0.002;entryY=0.969;entryDx=0;entryDy=0;entryPerimeter=0;" parent="1" target="Bl6Kn2tDG64BkgneYK8_-17" edge="1">
          <mxGeometry width="50" height="50" relative="1" as="geometry">
            <mxPoint x="420" y="783" as="sourcePoint" />
            <mxPoint x="950" y="770" as="targetPoint" />
            <Array as="points" />
          </mxGeometry>
        </mxCell>
        <mxCell id="HkCTBYgnvb_CsdK_xaza-308" value="to addres_reg" style="edgeLabel;html=1;align=center;verticalAlign=middle;resizable=0;points=[];" parent="HkCTBYgnvb_CsdK_xaza-298" vertex="1" connectable="0">
          <mxGeometry x="-0.0209" y="1" relative="1" as="geometry">
            <mxPoint x="53" as="offset" />
          </mxGeometry>
        </mxCell>
        <mxCell id="HkCTBYgnvb_CsdK_xaza-310" value="Datapath" style="rounded=0;whiteSpace=wrap;html=1;" parent="1" vertex="1">
          <mxGeometry x="1159.37" y="239.5" width="100" height="47" as="geometry" />
        </mxCell>
        <mxCell id="HkCTBYgnvb_CsdK_xaza-311" value="Control Unit" style="rounded=0;whiteSpace=wrap;html=1;" parent="1" vertex="1">
          <mxGeometry x="1520" y="323" width="100" height="47" as="geometry" />
        </mxCell>
        <mxCell id="HkCTBYgnvb_CsdK_xaza-313" value="" style="endArrow=classic;html=1;rounded=0;entryX=0.5;entryY=0;entryDx=0;entryDy=0;" parent="1" target="HkCTBYgnvb_CsdK_xaza-311" edge="1">
          <mxGeometry width="50" height="50" relative="1" as="geometry">
            <mxPoint x="1440" y="220" as="sourcePoint" />
            <mxPoint x="1480" y="260" as="targetPoint" />
            <Array as="points">
              <mxPoint x="1570" y="220" />
            </Array>
          </mxGeometry>
        </mxCell>
        <mxCell id="HkCTBYgnvb_CsdK_xaza-314" value="" style="endArrow=classic;html=1;rounded=0;exitX=0.5;exitY=1;exitDx=0;exitDy=0;entryX=0.25;entryY=1;entryDx=0;entryDy=0;" parent="1" source="HkCTBYgnvb_CsdK_xaza-310" target="HkCTBYgnvb_CsdK_xaza-157" edge="1">
          <mxGeometry width="50" height="50" relative="1" as="geometry">
            <mxPoint x="1310" y="520" as="sourcePoint" />
            <mxPoint x="1360" y="470" as="targetPoint" />
            <Array as="points">
              <mxPoint x="1210" y="600" />
              <mxPoint x="1380" y="600" />
            </Array>
          </mxGeometry>
        </mxCell>
        <mxCell id="HkCTBYgnvb_CsdK_xaza-316" value="ALU" style="edgeLabel;html=1;align=center;verticalAlign=middle;resizable=0;points=[];" parent="HkCTBYgnvb_CsdK_xaza-314" vertex="1" connectable="0">
          <mxGeometry x="0.4305" y="-1" relative="1" as="geometry">
            <mxPoint as="offset" />
          </mxGeometry>
        </mxCell>
        <mxCell id="HkCTBYgnvb_CsdK_xaza-315" value="" style="endArrow=classic;html=1;rounded=0;exitX=0.5;exitY=1;exitDx=0;exitDy=0;entryX=0.75;entryY=1;entryDx=0;entryDy=0;" parent="1" source="HkCTBYgnvb_CsdK_xaza-311" target="HkCTBYgnvb_CsdK_xaza-157" edge="1">
          <mxGeometry width="50" height="50" relative="1" as="geometry">
            <mxPoint x="1420" y="500" as="sourcePoint" />
            <mxPoint x="1470" y="450" as="targetPoint" />
            <Array as="points">
              <mxPoint x="1570" y="600" />
              <mxPoint x="1420" y="600" />
            </Array>
          </mxGeometry>
        </mxCell>
        <mxCell id="HkCTBYgnvb_CsdK_xaza-317" value="IP" style="edgeLabel;html=1;align=center;verticalAlign=middle;resizable=0;points=[];" parent="HkCTBYgnvb_CsdK_xaza-315" vertex="1" connectable="0">
          <mxGeometry x="0.4652" relative="1" as="geometry">
            <mxPoint as="offset" />
          </mxGeometry>
        </mxCell>
        <mxCell id="HkCTBYgnvb_CsdK_xaza-318" value="" style="endArrow=classic;html=1;rounded=0;exitX=0.5;exitY=1;exitDx=0;exitDy=0;entryX=0.5;entryY=1;entryDx=0;entryDy=0;" parent="1" source="HkCTBYgnvb_CsdK_xaza-187" target="BlZXFPjgalTiJrbHkwTR-2" edge="1">
          <mxGeometry width="50" height="50" relative="1" as="geometry">
            <mxPoint x="1887.37" y="751.5" as="sourcePoint" />
            <mxPoint x="1915" y="652.5" as="targetPoint" />
            <Array as="points">
              <mxPoint x="1915" y="633" />
              <mxPoint x="1700" y="633" />
            </Array>
          </mxGeometry>
        </mxCell>
        <mxCell id="HkCTBYgnvb_CsdK_xaza-320" value="IP" style="edgeLabel;html=1;align=center;verticalAlign=middle;resizable=0;points=[];" parent="HkCTBYgnvb_CsdK_xaza-318" vertex="1" connectable="0">
          <mxGeometry x="-0.1468" relative="1" as="geometry">
            <mxPoint as="offset" />
          </mxGeometry>
        </mxCell>
        <mxCell id="BlZXFPjgalTiJrbHkwTR-1" value="" style="endArrow=classic;html=1;rounded=0;entryX=0.25;entryY=1;entryDx=0;entryDy=0;startArrow=none;startFill=0;jumpStyle=arc;jumpSize=14;" parent="1" target="HkCTBYgnvb_CsdK_xaza-146" edge="1">
          <mxGeometry width="50" height="50" relative="1" as="geometry">
            <mxPoint x="620" y="240" as="sourcePoint" />
            <mxPoint x="600" y="410" as="targetPoint" />
            <Array as="points">
              <mxPoint x="620" y="500" />
              <mxPoint x="515" y="500" />
            </Array>
          </mxGeometry>
        </mxCell>
        <mxCell id="BlZXFPjgalTiJrbHkwTR-2" value="Middleware" style="rounded=0;whiteSpace=wrap;html=1;" parent="1" vertex="1">
          <mxGeometry x="1650" y="356" width="100" height="47" as="geometry" />
        </mxCell>
        <mxCell id="Bl6Kn2tDG64BkgneYK8_-5" value="" style="shape=trapezoid;perimeter=trapezoidPerimeter;whiteSpace=wrap;html=1;fixedSize=1;rotation=90;rounded=0;shadow=0;" vertex="1" parent="1">
          <mxGeometry x="268.75" y="208" width="90" height="30" as="geometry" />
        </mxCell>
        <mxCell id="Bl6Kn2tDG64BkgneYK8_-6" value="MUX" style="text;html=1;align=center;verticalAlign=middle;whiteSpace=wrap;rounded=0;" vertex="1" parent="1">
          <mxGeometry x="283.75" y="208" width="60" height="30" as="geometry" />
        </mxCell>
        <mxCell id="Bl6Kn2tDG64BkgneYK8_-7" value="" style="endArrow=classic;html=1;rounded=0;entryX=0;entryY=0.5;entryDx=0;entryDy=0;" edge="1" parent="1" target="Bl6Kn2tDG64BkgneYK8_-5">
          <mxGeometry width="50" height="50" relative="1" as="geometry">
            <mxPoint x="314" y="130" as="sourcePoint" />
            <mxPoint x="105" y="267.73" as="targetPoint" />
          </mxGeometry>
        </mxCell>
        <mxCell id="Bl6Kn2tDG64BkgneYK8_-8" value="&lt;font style=&quot;font-size: 9px;&quot;&gt;sig_reg_wr_io&lt;/font&gt;" style="edgeLabel;html=1;align=center;verticalAlign=middle;resizable=0;points=[];" vertex="1" connectable="0" parent="Bl6Kn2tDG64BkgneYK8_-7">
          <mxGeometry x="-0.1003" y="-1" relative="1" as="geometry">
            <mxPoint x="-1" y="-1" as="offset" />
          </mxGeometry>
        </mxCell>
        <mxCell id="Bl6Kn2tDG64BkgneYK8_-11" value="" style="endArrow=classic;html=1;rounded=0;exitX=0.5;exitY=0;exitDx=0;exitDy=0;entryX=0;entryY=0.5;entryDx=0;entryDy=0;" edge="1" parent="1" source="Bl6Kn2tDG64BkgneYK8_-5" target="HkCTBYgnvb_CsdK_xaza-225">
          <mxGeometry width="50" height="50" relative="1" as="geometry">
            <mxPoint x="330" y="270" as="sourcePoint" />
            <mxPoint x="410" y="190" as="targetPoint" />
          </mxGeometry>
        </mxCell>
        <mxCell id="Bl6Kn2tDG64BkgneYK8_-17" value="&lt;font style=&quot;font-size: 19px;&quot;&gt;Middlewate&lt;/font&gt;" style="rounded=0;whiteSpace=wrap;html=1;fillColor=none;dashed=1;" vertex="1" parent="1">
          <mxGeometry x="810" y="140" width="110" height="660" as="geometry" />
        </mxCell>
      </root>
    </mxGraphModel>
  </diagram>
</mxfile>
